<?xml version="1.0" encoding="UTF-8" standalone="no"?>
<!DOCTYPE svg PUBLIC "-//W3C//DTD SVG 1.1//EN"
 "http://www.w3.org/Graphics/SVG/1.1/DTD/svg11.dtd">
<!-- Generated by graphviz version 12.2.0 (20241103.1931)
 -->
<!-- Title: LD2410Async Pages: 1 -->
<svg width="296pt" height="94pt"
 viewBox="0.00 0.00 295.88 93.75" xmlns="http://www.w3.org/2000/svg" xmlns:xlink="http://www.w3.org/1999/xlink">
<g id="graph0" class="graph" transform="scale(1 1) rotate(0) translate(4 89.75)">
<title>LD2410Async</title>
<!-- Node1 -->
<g id="Node000001" class="node">
<title>Node1</title>
<g id="a_Node000001"><a xlink:title=" ">
<polygon fill="#999999" stroke="#666666" points="185.38,-19.25 108.62,-19.25 108.62,0 185.38,0 185.38,-19.25"/>
<text text-anchor="middle" x="147" y="-5.75" font-family="Helvetica,sans-Serif" font-size="10.00">LD2410Async</text>
</a>
</g>
</g>
<!-- Node2 -->
<g id="Node000002" class="node">
<title>Node2</title>
<g id="a_Node000002"><a xlink:href="structLD2410Types_1_1DetectionData.html" target="_top" xlink:title="Holds the most recent detection data reported by the radar.">
<polygon fill="white" stroke="#666666" points="142,-85.75 0,-85.75 0,-66.5 142,-66.5 142,-85.75"/>
<text text-anchor="middle" x="71" y="-72.25" font-family="Helvetica,sans-Serif" font-size="10.00">LD2410Types::DetectionData</text>
</a>
</g>
</g>
<!-- Node2&#45;&gt;Node1 -->
<g id="edge1_Node000001_Node000002" class="edge">
<title>Node2&#45;&gt;Node1</title>
<g id="a_edge1_Node000001_Node000002"><a xlink:title=" ">
<path fill="none" stroke="#9a32cd" stroke-dasharray="5,2" d="M89.95,-59.04C104.67,-46.55 124.54,-29.69 136.52,-19.52"/>
<polygon fill="#9a32cd" stroke="#9a32cd" points="88.08,-56.04 82.72,-65.18 92.61,-61.38 88.08,-56.04"/>
</a>
</g>
<text text-anchor="middle" x="144.68" y="-39" font-family="Helvetica,sans-Serif" font-size="10.00" fill="grey"> detectionData</text>
</g>
<!-- Node3 -->
<g id="Node000003" class="node">
<title>Node3</title>
<g id="a_Node000003"><a xlink:href="structLD2410Types_1_1ConfigData.html" target="_top" xlink:title="Stores the sensor’s configuration parameters.">
<polygon fill="white" stroke="#666666" points="287.88,-85.75 160.12,-85.75 160.12,-66.5 287.88,-66.5 287.88,-85.75"/>
<text text-anchor="middle" x="224" y="-72.25" font-family="Helvetica,sans-Serif" font-size="10.00">LD2410Types::ConfigData</text>
</a>
</g>
</g>
<!-- Node3&#45;&gt;Node1 -->
<g id="edge2_Node000001_Node000003" class="edge">
<title>Node3&#45;&gt;Node1</title>
<g id="a_edge2_Node000001_Node000003"><a xlink:title=" ">
<path fill="none" stroke="#9a32cd" stroke-dasharray="5,2" d="M204.98,-58.52C197.27,-51.85 188.26,-44.13 180,-37.25 172.87,-31.31 164.77,-24.77 158.37,-19.66"/>
<polygon fill="#9a32cd" stroke="#9a32cd" points="202.6,-61.09 212.45,-65.01 207.19,-55.81 202.6,-61.09"/>
</a>
</g>
<text text-anchor="middle" x="216.19" y="-39" font-family="Helvetica,sans-Serif" font-size="10.00" fill="grey"> configData</text>
</g>
</g>
</svg>
