<?xml version="1.0" encoding="UTF-8" standalone="no"?>
<!DOCTYPE svg PUBLIC "-//W3C//DTD SVG 1.1//EN"
 "http://www.w3.org/Graphics/SVG/1.1/DTD/svg11.dtd">
<!-- Generated by graphviz version 12.2.0 (20241103.1931)
 -->
<!-- Title: LD2410Async::configureDistanceGateSensitivityAsync Pages: 1 -->
<svg width="354pt" height="76pt"
 viewBox="0.00 0.00 353.50 75.88" xmlns="http://www.w3.org/2000/svg" xmlns:xlink="http://www.w3.org/1999/xlink">
<g id="graph0" class="graph" transform="scale(1 1) rotate(0) translate(4 71.88)">
<title>LD2410Async::configureDistanceGateSensitivityAsync</title>
<!-- Node1 -->
<g id="Node000001" class="node">
<title>Node1</title>
<g id="a_Node000001"><a xlink:title="Configures sensitivity thresholds for a single gate.">
<polygon fill="#999999" stroke="#666666" points="158.5,-51.5 0,-51.5 0,-21 158.5,-21 158.5,-51.5"/>
<text text-anchor="start" x="8" y="-38" font-family="Helvetica,sans-Serif" font-size="10.00">LD2410Async::configureDistance</text>
<text text-anchor="middle" x="79.25" y="-26.75" font-family="Helvetica,sans-Serif" font-size="10.00">GateSensitivityAsync</text>
</a>
</g>
</g>
<!-- Node2 -->
<g id="Node000002" class="node">
<title>Node2</title>
<g id="a_Node000002"><a xlink:href="classLD2410Async.html#a72e853afaba8373fb90524c3c4e8a153" target="_top" xlink:title="Checks if an asynchronous command is currently pending.">
<polygon fill="white" stroke="#666666" points="338.38,-67.88 201.62,-67.88 201.62,-48.62 338.38,-48.62 338.38,-67.88"/>
<text text-anchor="middle" x="270" y="-54.38" font-family="Helvetica,sans-Serif" font-size="10.00">LD2410Async::asyncIsBusy</text>
</a>
</g>
</g>
<!-- Node1&#45;&gt;Node2 -->
<g id="edge1_Node000001_Node000002" class="edge">
<title>Node1&#45;&gt;Node2</title>
<g id="a_edge1_Node000001_Node000002"><a xlink:title=" ">
<path fill="none" stroke="#63b8ff" d="M158.93,-45.42C169.15,-46.61 179.61,-47.83 189.84,-49.02"/>
<polygon fill="#63b8ff" stroke="#63b8ff" points="189.41,-52.5 199.75,-50.18 190.22,-45.54 189.41,-52.5"/>
</a>
</g>
</g>
<!-- Node3 -->
<g id="Node000003" class="node">
<title>Node3</title>
<g id="a_Node000003"><a xlink:href="namespaceLD2410CommandBuilder.html#a9879fbf4d013640f1a9bffdbc21122f6" target="_top" xlink:title=" ">
<polygon fill="white" stroke="#666666" points="345.5,-30.5 194.5,-30.5 194.5,0 345.5,0 345.5,-30.5"/>
<text text-anchor="start" x="202.5" y="-17" font-family="Helvetica,sans-Serif" font-size="10.00">LD2410CommandBuilder</text>
<text text-anchor="middle" x="270" y="-5.75" font-family="Helvetica,sans-Serif" font-size="10.00">::buildGateSensitivityCommand</text>
</a>
</g>
</g>
<!-- Node1&#45;&gt;Node3 -->
<g id="edge2_Node000001_Node000003" class="edge">
<title>Node1&#45;&gt;Node3</title>
<g id="a_edge2_Node000001_Node000003"><a xlink:title=" ">
<path fill="none" stroke="#63b8ff" d="M158.93,-27.5C166.84,-26.62 174.89,-25.72 182.87,-24.83"/>
<polygon fill="#63b8ff" stroke="#63b8ff" points="183.02,-28.34 192.57,-23.75 182.25,-21.38 183.02,-28.34"/>
</a>
</g>
</g>
</g>
</svg>
