<?xml version="1.0" encoding="UTF-8" standalone="no"?>
<!DOCTYPE svg PUBLIC "-//W3C//DTD SVG 1.1//EN"
 "http://www.w3.org/Graphics/SVG/1.1/DTD/svg11.dtd">
<!-- Generated by graphviz version 12.2.0 (20241103.1931)
 -->
<!-- Title: LD2410Async::configureAuxControlSettingsAsync Pages: 1 -->
<svg width="318pt" height="76pt"
 viewBox="0.00 0.00 317.50 75.88" xmlns="http://www.w3.org/2000/svg" xmlns:xlink="http://www.w3.org/1999/xlink">
<g id="graph0" class="graph" transform="scale(1 1) rotate(0) translate(4 71.88)">
<title>LD2410Async::configureAuxControlSettingsAsync</title>
<!-- Node1 -->
<g id="Node000001" class="node">
<title>Node1</title>
<g id="a_Node000001"><a xlink:title="Configures the auxiliary control parameters (light and output pin).">
<polygon fill="#999999" stroke="#666666" points="136.75,-51.5 0,-51.5 0,-21 136.75,-21 136.75,-51.5"/>
<text text-anchor="start" x="8" y="-38" font-family="Helvetica,sans-Serif" font-size="10.00">LD2410Async::configureAux</text>
<text text-anchor="middle" x="68.38" y="-26.75" font-family="Helvetica,sans-Serif" font-size="10.00">ControlSettingsAsync</text>
</a>
</g>
</g>
<!-- Node2 -->
<g id="Node000002" class="node">
<title>Node2</title>
<g id="a_Node000002"><a xlink:href="classLD2410Async.html#a72e853afaba8373fb90524c3c4e8a153" target="_top" xlink:title="Checks if an asynchronous command is currently pending.">
<polygon fill="white" stroke="#666666" points="309.5,-67.88 172.75,-67.88 172.75,-48.62 309.5,-48.62 309.5,-67.88"/>
<text text-anchor="middle" x="241.12" y="-54.38" font-family="Helvetica,sans-Serif" font-size="10.00">LD2410Async::asyncIsBusy</text>
</a>
</g>
</g>
<!-- Node1&#45;&gt;Node2 -->
<g id="edge1_Node000001_Node000002" class="edge">
<title>Node1&#45;&gt;Node2</title>
<g id="a_edge1_Node000001_Node000002"><a xlink:title=" ">
<path fill="none" stroke="#63b8ff" d="M136.86,-44.94C144.78,-45.97 152.91,-47.01 160.98,-48.05"/>
<polygon fill="#63b8ff" stroke="#63b8ff" points="160.42,-51.51 170.79,-49.32 161.32,-44.57 160.42,-51.51"/>
</a>
</g>
</g>
<!-- Node3 -->
<g id="Node000003" class="node">
<title>Node3</title>
<g id="a_Node000003"><a xlink:href="namespaceLD2410CommandBuilder.html#a8b54a13a534e713b1fc2b29818bbe255" target="_top" xlink:title=" ">
<polygon fill="white" stroke="#666666" points="307.25,-30.5 175,-30.5 175,0 307.25,0 307.25,-30.5"/>
<text text-anchor="start" x="183" y="-17" font-family="Helvetica,sans-Serif" font-size="10.00">LD2410CommandBuilder</text>
<text text-anchor="middle" x="241.12" y="-5.75" font-family="Helvetica,sans-Serif" font-size="10.00">::buildAuxControlCommand</text>
</a>
</g>
</g>
<!-- Node1&#45;&gt;Node3 -->
<g id="edge2_Node000001_Node000003" class="edge">
<title>Node1&#45;&gt;Node3</title>
<g id="a_edge2_Node000001_Node000003"><a xlink:title=" ">
<path fill="none" stroke="#63b8ff" d="M136.86,-27.95C145.48,-26.89 154.36,-25.8 163.11,-24.72"/>
<polygon fill="#63b8ff" stroke="#63b8ff" points="163.52,-28.2 173.02,-23.5 162.67,-21.25 163.52,-28.2"/>
</a>
</g>
</g>
</g>
</svg>
