<?xml version="1.0" encoding="UTF-8" standalone="no"?>
<!DOCTYPE svg PUBLIC "-//W3C//DTD SVG 1.1//EN"
 "http://www.w3.org/Graphics/SVG/1.1/DTD/svg11.dtd">
<!-- Generated by graphviz version 12.2.0 (20241103.1931)
 -->
<!-- Title: LD2410Async::configureBluetoothPasswordAsync Pages: 1 -->
<svg width="375pt" height="76pt"
 viewBox="0.00 0.00 375.25 75.88" xmlns="http://www.w3.org/2000/svg" xmlns:xlink="http://www.w3.org/1999/xlink">
<g id="graph0" class="graph" transform="scale(1 1) rotate(0) translate(4 71.88)">
<title>LD2410Async::configureBluetoothPasswordAsync</title>
<!-- Node1 -->
<g id="Node000001" class="node">
<title>Node1</title>
<g id="a_Node000001"><a xlink:title="Sets the password for bluetooth access to the sensor.">
<polygon fill="#999999" stroke="#666666" points="161.5,-51.5 0,-51.5 0,-21 161.5,-21 161.5,-51.5"/>
<text text-anchor="start" x="8" y="-38" font-family="Helvetica,sans-Serif" font-size="10.00">LD2410Async::configureBluetooth</text>
<text text-anchor="middle" x="80.75" y="-26.75" font-family="Helvetica,sans-Serif" font-size="10.00">PasswordAsync</text>
</a>
</g>
</g>
<!-- Node2 -->
<g id="Node000002" class="node">
<title>Node2</title>
<g id="a_Node000002"><a xlink:href="classLD2410Async.html#a72e853afaba8373fb90524c3c4e8a153" target="_top" xlink:title="Checks if an asynchronous command is currently pending.">
<polygon fill="white" stroke="#666666" points="350.75,-67.88 214,-67.88 214,-48.62 350.75,-48.62 350.75,-67.88"/>
<text text-anchor="middle" x="282.38" y="-54.38" font-family="Helvetica,sans-Serif" font-size="10.00">LD2410Async::asyncIsBusy</text>
</a>
</g>
</g>
<!-- Node1&#45;&gt;Node2 -->
<g id="edge1_Node000001_Node000002" class="edge">
<title>Node1&#45;&gt;Node2</title>
<g id="a_edge1_Node000001_Node000002"><a xlink:title=" ">
<path fill="none" stroke="#63b8ff" d="M161.79,-45.07C175.18,-46.55 189.07,-48.08 202.43,-49.55"/>
<polygon fill="#63b8ff" stroke="#63b8ff" points="201.68,-52.99 212,-50.6 202.45,-46.03 201.68,-52.99"/>
</a>
</g>
</g>
<!-- Node3 -->
<g id="Node000003" class="node">
<title>Node3</title>
<g id="a_Node000003"><a xlink:href="namespaceLD2410CommandBuilder.html#abf6ee0e1bb505fd30efd8b776557cf1f" target="_top" xlink:title=" ">
<polygon fill="white" stroke="#666666" points="367.25,-30.5 197.5,-30.5 197.5,0 367.25,0 367.25,-30.5"/>
<text text-anchor="start" x="205.5" y="-17" font-family="Helvetica,sans-Serif" font-size="10.00">LD2410CommandBuilder</text>
<text text-anchor="middle" x="282.38" y="-5.75" font-family="Helvetica,sans-Serif" font-size="10.00">::buildBluetoothPasswordCommand</text>
</a>
</g>
</g>
<!-- Node1&#45;&gt;Node3 -->
<g id="edge2_Node000001_Node000003" class="edge">
<title>Node1&#45;&gt;Node3</title>
<g id="a_edge2_Node000001_Node000003"><a xlink:title=" ">
<path fill="none" stroke="#63b8ff" d="M161.79,-27.83C169.68,-27 177.74,-26.15 185.77,-25.31"/>
<polygon fill="#63b8ff" stroke="#63b8ff" points="185.98,-28.8 195.56,-24.28 185.25,-21.84 185.98,-28.8"/>
</a>
</g>
</g>
</g>
</svg>
