<?xml version="1.0" encoding="UTF-8" standalone="no"?>
<!DOCTYPE svg PUBLIC "-//W3C//DTD SVG 1.1//EN"
 "http://www.w3.org/Graphics/SVG/1.1/DTD/svg11.dtd">
<!-- Generated by graphviz version 12.2.0 (20241103.1931)
 -->
<!-- Title: LD2410Async::configureDistanceResolutionAsync Pages: 1 -->
<svg width="372pt" height="76pt"
 viewBox="0.00 0.00 371.50 75.88" xmlns="http://www.w3.org/2000/svg" xmlns:xlink="http://www.w3.org/1999/xlink">
<g id="graph0" class="graph" transform="scale(1 1) rotate(0) translate(4 71.88)">
<title>LD2410Async::configureDistanceResolutionAsync</title>
<!-- Node1 -->
<g id="Node000001" class="node">
<title>Node1</title>
<g id="a_Node000001"><a xlink:title="Configures the distance resolution of the radar.">
<polygon fill="#999999" stroke="#666666" points="158.5,-51.5 0,-51.5 0,-21 158.5,-21 158.5,-51.5"/>
<text text-anchor="start" x="8" y="-38" font-family="Helvetica,sans-Serif" font-size="10.00">LD2410Async::configureDistance</text>
<text text-anchor="middle" x="79.25" y="-26.75" font-family="Helvetica,sans-Serif" font-size="10.00">ResolutionAsync</text>
</a>
</g>
</g>
<!-- Node2 -->
<g id="Node000002" class="node">
<title>Node2</title>
<g id="a_Node000002"><a xlink:href="classLD2410Async.html#a72e853afaba8373fb90524c3c4e8a153" target="_top" xlink:title="Checks if an asynchronous command is currently pending.">
<polygon fill="white" stroke="#666666" points="347.38,-67.88 210.62,-67.88 210.62,-48.62 347.38,-48.62 347.38,-67.88"/>
<text text-anchor="middle" x="279" y="-54.38" font-family="Helvetica,sans-Serif" font-size="10.00">LD2410Async::asyncIsBusy</text>
</a>
</g>
</g>
<!-- Node1&#45;&gt;Node2 -->
<g id="edge1_Node000001_Node000002" class="edge">
<title>Node1&#45;&gt;Node2</title>
<g id="a_edge1_Node000001_Node000002"><a xlink:title=" ">
<path fill="none" stroke="#63b8ff" d="M158.97,-45.01C172.14,-46.47 185.8,-47.99 198.97,-49.46"/>
<polygon fill="#63b8ff" stroke="#63b8ff" points="198.56,-52.93 208.88,-50.56 199.33,-45.98 198.56,-52.93"/>
</a>
</g>
</g>
<!-- Node3 -->
<g id="Node000003" class="node">
<title>Node3</title>
<g id="a_Node000003"><a xlink:href="namespaceLD2410CommandBuilder.html#a2a87725992c2b7bd53fc2b24f5ac4a0f" target="_top" xlink:title=" ">
<polygon fill="white" stroke="#666666" points="363.5,-30.5 194.5,-30.5 194.5,0 363.5,0 363.5,-30.5"/>
<text text-anchor="start" x="202.5" y="-17" font-family="Helvetica,sans-Serif" font-size="10.00">LD2410CommandBuilder</text>
<text text-anchor="middle" x="279" y="-5.75" font-family="Helvetica,sans-Serif" font-size="10.00">::buildDistanceResolutionCommand</text>
</a>
</g>
</g>
<!-- Node1&#45;&gt;Node3 -->
<g id="edge2_Node000001_Node000003" class="edge">
<title>Node1&#45;&gt;Node3</title>
<g id="a_edge2_Node000001_Node000003"><a xlink:title=" ">
<path fill="none" stroke="#63b8ff" d="M158.97,-27.89C166.81,-27.06 174.82,-26.21 182.79,-25.36"/>
<polygon fill="#63b8ff" stroke="#63b8ff" points="182.95,-28.86 192.52,-24.33 182.21,-21.9 182.95,-28.86"/>
</a>
</g>
</g>
</g>
</svg>
