<?xml version="1.0" encoding="UTF-8" standalone="no"?>
<!DOCTYPE svg PUBLIC "-//W3C//DTD SVG 1.1//EN"
 "http://www.w3.org/Graphics/SVG/1.1/DTD/svg11.dtd">
<!-- Generated by graphviz version 12.2.0 (20241103.1931)
 -->
<!-- Title: LD2410Async::asyncIsBusy Pages: 1 -->
<svg width="542pt" height="1387pt"
 viewBox="0.00 0.00 542.00 1386.50" xmlns="http://www.w3.org/2000/svg" xmlns:xlink="http://www.w3.org/1999/xlink">
<g id="graph0" class="graph" transform="scale(1 1) rotate(0) translate(4 1382.5)">
<title>LD2410Async::asyncIsBusy</title>
<!-- Node1 -->
<g id="Node000001" class="node">
<title>Node1</title>
<g id="a_Node000001"><a xlink:title="Checks if an asynchronous command is currently pending.">
<polygon fill="#999999" stroke="#666666" points="534,-698.88 397.25,-698.88 397.25,-679.62 534,-679.62 534,-698.88"/>
<text text-anchor="middle" x="465.62" y="-685.38" font-family="Helvetica,sans-Serif" font-size="10.00">LD2410Async::asyncIsBusy</text>
</a>
</g>
</g>
<!-- Node2 -->
<g id="Node000002" class="node">
<title>Node2</title>
<g id="a_Node000002"><a xlink:href="classLD2410Async.html#aed89a0870ddacee96bc2f0fb9c1c96fc" target="_top" xlink:title="Starts the automatic configuration (auto&#45;config) routine on the sensor.">
<polygon fill="white" stroke="#666666" points="355.25,-1378.5 203.5,-1378.5 203.5,-1348 355.25,-1348 355.25,-1378.5"/>
<text text-anchor="start" x="211.5" y="-1365" font-family="Helvetica,sans-Serif" font-size="10.00">LD2410Async::beginAutoConfig</text>
<text text-anchor="middle" x="279.38" y="-1353.75" font-family="Helvetica,sans-Serif" font-size="10.00">Async</text>
</a>
</g>
</g>
<!-- Node1&#45;&gt;Node2 -->
<g id="edge1_Node000001_Node000002" class="edge">
<title>Node1&#45;&gt;Node2</title>
<g id="a_edge1_Node000001_Node000002"><a xlink:title=" ">
<path fill="none" stroke="#63b8ff" d="M464.17,-710.4C461.56,-811.1 445.58,-1241.02 361.25,-1338.25 358.07,-1341.91 354.37,-1345.05 350.33,-1347.73"/>
<polygon fill="#63b8ff" stroke="#63b8ff" points="467.66,-710.71 464.4,-700.63 460.66,-710.54 467.66,-710.71"/>
</a>
</g>
</g>
<!-- Node3 -->
<g id="Node000003" class="node">
<title>Node3</title>
<g id="a_Node000003"><a xlink:href="classLD2410Async.html#a509170bfc50580131d0c72f5c91daede" target="_top" xlink:title="Applies a full ConfigData struct to the LD2410.">
<polygon fill="white" stroke="#666666" points="345.12,-1329.5 213.62,-1329.5 213.62,-1299 345.12,-1299 345.12,-1329.5"/>
<text text-anchor="start" x="221.62" y="-1316" font-family="Helvetica,sans-Serif" font-size="10.00">LD2410Async::configureAll</text>
<text text-anchor="middle" x="279.38" y="-1304.75" font-family="Helvetica,sans-Serif" font-size="10.00">ConfigSettingsAsync</text>
</a>
</g>
</g>
<!-- Node1&#45;&gt;Node3 -->
<g id="edge2_Node000001_Node000003" class="edge">
<title>Node1&#45;&gt;Node3</title>
<g id="a_edge2_Node000001_Node000003"><a xlink:title=" ">
<path fill="none" stroke="#63b8ff" d="M463.86,-710.61C459.97,-806.96 439.45,-1200.23 361.25,-1289.25 356.79,-1294.33 351.32,-1298.39 345.35,-1301.63"/>
<polygon fill="#63b8ff" stroke="#63b8ff" points="467.35,-710.9 464.23,-700.78 460.35,-710.64 467.35,-710.9"/>
</a>
</g>
</g>
<!-- Node4 -->
<g id="Node000004" class="node">
<title>Node4</title>
<g id="a_Node000004"><a xlink:href="classLD2410Async.html#a90e3bc56482783249d966a670310bffd" target="_top" xlink:title="Configures the auxiliary control parameters (light and output pin).">
<polygon fill="white" stroke="#666666" points="347.75,-1280.5 211,-1280.5 211,-1250 347.75,-1250 347.75,-1280.5"/>
<text text-anchor="start" x="219" y="-1267" font-family="Helvetica,sans-Serif" font-size="10.00">LD2410Async::configureAux</text>
<text text-anchor="middle" x="279.38" y="-1255.75" font-family="Helvetica,sans-Serif" font-size="10.00">ControlSettingsAsync</text>
</a>
</g>
</g>
<!-- Node1&#45;&gt;Node4 -->
<g id="edge3_Node000001_Node000004" class="edge">
<title>Node1&#45;&gt;Node4</title>
<g id="a_edge3_Node000001_Node000004"><a xlink:title=" ">
<path fill="none" stroke="#63b8ff" d="M463.5,-710.59C458.26,-801.96 433.41,-1159.33 361.25,-1240.25 357.44,-1244.53 352.91,-1248.08 347.97,-1251.03"/>
<polygon fill="#63b8ff" stroke="#63b8ff" points="466.98,-710.99 464.04,-700.82 459.99,-710.61 466.98,-710.99"/>
</a>
</g>
</g>
<!-- Node5 -->
<g id="Node000005" class="node">
<title>Node5</title>
<g id="a_Node000005"><a xlink:href="classLD2410Async.html#a39aa1e94b76c2a08d96ab80fe2c9ed9c" target="_top" xlink:title="Configures the UART baud rate of the sensor.">
<polygon fill="white" stroke="#666666" points="350.75,-1231.5 208,-1231.5 208,-1201 350.75,-1201 350.75,-1231.5"/>
<text text-anchor="start" x="216" y="-1218" font-family="Helvetica,sans-Serif" font-size="10.00">LD2410Async::configureBaud</text>
<text text-anchor="middle" x="279.38" y="-1206.75" font-family="Helvetica,sans-Serif" font-size="10.00">RateAsync</text>
</a>
</g>
</g>
<!-- Node1&#45;&gt;Node5 -->
<g id="edge4_Node000001_Node000005" class="edge">
<title>Node1&#45;&gt;Node5</title>
<g id="a_edge4_Node000001_Node000005"><a xlink:title=" ">
<path fill="none" stroke="#63b8ff" d="M462.96,-710.33C455.84,-795.55 425.31,-1113.56 361.25,-1187.25 356.55,-1192.65 350.77,-1197.05 344.48,-1200.63"/>
<polygon fill="#63b8ff" stroke="#63b8ff" points="466.43,-710.87 463.75,-700.62 459.45,-710.3 466.43,-710.87"/>
</a>
</g>
</g>
<!-- Node6 -->
<g id="Node000006" class="node">
<title>Node6</title>
<g id="a_Node000006"><a xlink:href="classLD2410Async.html#adcd209213cc2e418aefd20573a868e0a" target="_top" xlink:title="Configures the baudrate of the serial port of the sensor.">
<polygon fill="white" stroke="#666666" points="152.12,-1212.5 9.38,-1212.5 9.38,-1182 152.12,-1182 152.12,-1212.5"/>
<text text-anchor="start" x="17.38" y="-1199" font-family="Helvetica,sans-Serif" font-size="10.00">LD2410Async::configureBaud</text>
<text text-anchor="middle" x="80.75" y="-1187.75" font-family="Helvetica,sans-Serif" font-size="10.00">RateAsync</text>
</a>
</g>
</g>
<!-- Node1&#45;&gt;Node6 -->
<g id="edge6_Node000001_Node000006" class="edge">
<title>Node1&#45;&gt;Node6</title>
<g id="a_edge6_Node000001_Node000006"><a xlink:title=" ">
<path fill="none" stroke="#63b8ff" d="M463.03,-710.32C456.33,-792.76 427.73,-1092.02 361.25,-1154.25 346.17,-1168.36 230.19,-1182.5 152.44,-1190.53"/>
<polygon fill="#63b8ff" stroke="#63b8ff" points="466.5,-710.77 463.8,-700.52 459.52,-710.22 466.5,-710.77"/>
</a>
</g>
</g>
<!-- Node7 -->
<g id="Node000007" class="node">
<title>Node7</title>
<g id="a_Node000007"><a xlink:href="classLD2410Async.html#aaa0138cb624b66482e9a05b197c21f22" target="_top" xlink:title="Sets the password for bluetooth access to the sensor.">
<polygon fill="white" stroke="#666666" points="360.12,-1145.5 198.62,-1145.5 198.62,-1115 360.12,-1115 360.12,-1145.5"/>
<text text-anchor="start" x="206.62" y="-1132" font-family="Helvetica,sans-Serif" font-size="10.00">LD2410Async::configureBluetooth</text>
<text text-anchor="middle" x="279.38" y="-1120.75" font-family="Helvetica,sans-Serif" font-size="10.00">PasswordAsync</text>
</a>
</g>
</g>
<!-- Node1&#45;&gt;Node7 -->
<g id="edge7_Node000001_Node000007" class="edge">
<title>Node1&#45;&gt;Node7</title>
<g id="a_edge7_Node000001_Node000007"><a xlink:title=" ">
<path fill="none" stroke="#63b8ff" d="M462.08,-710.74C452.57,-787.46 416.82,-1046.46 361.25,-1105.25 357.82,-1108.88 353.87,-1111.99 349.61,-1114.65"/>
<polygon fill="#63b8ff" stroke="#63b8ff" points="465.55,-711.18 463.28,-700.83 458.6,-710.33 465.55,-711.18"/>
</a>
</g>
</g>
<!-- Node9 -->
<g id="Node000009" class="node">
<title>Node9</title>
<g id="a_Node000009"><a xlink:href="classLD2410Async.html#ab9f9858ab6d6cf4c4ab91e4580a2ea50" target="_top" xlink:title="Resets the password for bluetooth access to the default value (HiLink)">
<polygon fill="white" stroke="#666666" points="354.88,-1096.5 203.88,-1096.5 203.88,-1066 354.88,-1066 354.88,-1096.5"/>
<text text-anchor="start" x="211.88" y="-1083" font-family="Helvetica,sans-Serif" font-size="10.00">LD2410Async::configureDefault</text>
<text text-anchor="middle" x="279.38" y="-1071.75" font-family="Helvetica,sans-Serif" font-size="10.00">BluetoothPasswordAsync</text>
</a>
</g>
</g>
<!-- Node1&#45;&gt;Node9 -->
<g id="edge9_Node000001_Node000009" class="edge">
<title>Node1&#45;&gt;Node9</title>
<g id="a_edge9_Node000001_Node000009"><a xlink:title=" ">
<path fill="none" stroke="#63b8ff" d="M465.21,-710.43C465.72,-772.61 458.54,-956.47 361.25,-1056.25 357.76,-1059.83 353.77,-1062.9 349.48,-1065.53"/>
<polygon fill="#63b8ff" stroke="#63b8ff" points="468.71,-710.54 465.04,-700.6 461.71,-710.66 468.71,-710.54"/>
</a>
</g>
</g>
<!-- Node10 -->
<g id="Node000010" class="node">
<title>Node10</title>
<g id="a_Node000010"><a xlink:href="classLD2410Async.html#a9493caef9e22a89445741da019b99213" target="_top" xlink:title="Configures sensitivity thresholds for a single gate.">
<polygon fill="white" stroke="#666666" points="358.62,-1047.5 200.12,-1047.5 200.12,-1017 358.62,-1017 358.62,-1047.5"/>
<text text-anchor="start" x="208.12" y="-1034" font-family="Helvetica,sans-Serif" font-size="10.00">LD2410Async::configureDistance</text>
<text text-anchor="middle" x="279.38" y="-1022.75" font-family="Helvetica,sans-Serif" font-size="10.00">GateSensitivityAsync</text>
</a>
</g>
</g>
<!-- Node1&#45;&gt;Node10 -->
<g id="edge10_Node000001_Node000010" class="edge">
<title>Node1&#45;&gt;Node10</title>
<g id="a_edge10_Node000001_Node000010"><a xlink:title=" ">
<path fill="none" stroke="#63b8ff" d="M464.12,-710.56C461.59,-767.22 446.79,-922.94 361.25,-1007.25 357.59,-1010.86 353.41,-1013.95 348.94,-1016.6"/>
<polygon fill="#63b8ff" stroke="#63b8ff" points="467.61,-710.84 464.46,-700.72 460.61,-710.59 467.61,-710.84"/>
</a>
</g>
</g>
<!-- Node11 -->
<g id="Node000011" class="node">
<title>Node11</title>
<g id="a_Node000011"><a xlink:href="classLD2410Async.html#a1cf70cb5f55626596530d050b0812b38" target="_top" xlink:title="Configures sensitivity thresholds for all gates at once.">
<polygon fill="white" stroke="#666666" points="358.62,-998.5 200.12,-998.5 200.12,-968 358.62,-968 358.62,-998.5"/>
<text text-anchor="start" x="208.12" y="-985" font-family="Helvetica,sans-Serif" font-size="10.00">LD2410Async::configureDistance</text>
<text text-anchor="middle" x="279.38" y="-973.75" font-family="Helvetica,sans-Serif" font-size="10.00">GateSensitivityAsync</text>
</a>
</g>
</g>
<!-- Node1&#45;&gt;Node11 -->
<g id="edge11_Node000001_Node000011" class="edge">
<title>Node1&#45;&gt;Node11</title>
<g id="a_edge11_Node000001_Node000011"><a xlink:title=" ">
<path fill="none" stroke="#63b8ff" d="M462.65,-710.61C456.84,-761.16 435.21,-889.09 361.25,-958.25 357.39,-961.86 353.01,-964.96 348.34,-967.6"/>
<polygon fill="#63b8ff" stroke="#63b8ff" points="466.12,-711.07 463.68,-700.76 459.16,-710.34 466.12,-711.07"/>
</a>
</g>
</g>
<!-- Node12 -->
<g id="Node000012" class="node">
<title>Node12</title>
<g id="a_Node000012"><a xlink:href="classLD2410Async.html#a3ebfc3c3547f3894ae264b82a32c1a82" target="_top" xlink:title="Configures the distance resolution explicitly to 75 cm per gate.">
<polygon fill="white" stroke="#666666" points="358.62,-949.5 200.12,-949.5 200.12,-919 358.62,-919 358.62,-949.5"/>
<text text-anchor="start" x="208.12" y="-936" font-family="Helvetica,sans-Serif" font-size="10.00">LD2410Async::configureDistance</text>
<text text-anchor="middle" x="279.38" y="-924.75" font-family="Helvetica,sans-Serif" font-size="10.00">Resolution75cmAsync</text>
</a>
</g>
</g>
<!-- Node1&#45;&gt;Node12 -->
<g id="edge12_Node000001_Node000012" class="edge">
<title>Node1&#45;&gt;Node12</title>
<g id="a_edge12_Node000001_Node000012"><a xlink:title=" ">
<path fill="none" stroke="#63b8ff" d="M460.62,-710.5C451.27,-754.24 423.86,-854.82 361.25,-909.25 357.04,-912.91 352.29,-916.04 347.26,-918.71"/>
<polygon fill="#63b8ff" stroke="#63b8ff" points="464.04,-711.28 462.58,-700.79 457.17,-709.9 464.04,-711.28"/>
</a>
</g>
</g>
<!-- Node13 -->
<g id="Node000013" class="node">
<title>Node13</title>
<g id="a_Node000013"><a xlink:href="classLD2410Async.html#ae6e3792586e3bac35ca187d41a0b9250" target="_top" xlink:title="Configures the distance resolution of the radar.">
<polygon fill="white" stroke="#666666" points="358.62,-900.5 200.12,-900.5 200.12,-870 358.62,-870 358.62,-900.5"/>
<text text-anchor="start" x="208.12" y="-887" font-family="Helvetica,sans-Serif" font-size="10.00">LD2410Async::configureDistance</text>
<text text-anchor="middle" x="279.38" y="-875.75" font-family="Helvetica,sans-Serif" font-size="10.00">ResolutionAsync</text>
</a>
</g>
</g>
<!-- Node1&#45;&gt;Node13 -->
<g id="edge13_Node000001_Node000013" class="edge">
<title>Node1&#45;&gt;Node13</title>
<g id="a_edge13_Node000001_Node000013"><a xlink:title=" ">
<path fill="none" stroke="#63b8ff" d="M457.82,-709.64C444.83,-745.46 413.06,-819.75 361.25,-860.25 356.62,-863.87 351.46,-866.97 346.05,-869.62"/>
<polygon fill="#63b8ff" stroke="#63b8ff" points="461.02,-711.09 461.01,-700.49 454.41,-708.78 461.02,-711.09"/>
</a>
</g>
</g>
<!-- Node14 -->
<g id="Node000014" class="node">
<title>Node14</title>
<g id="a_Node000014"><a xlink:href="classLD2410Async.html#a0eb274f41635209e31f34f869fe1826a" target="_top" xlink:title="Configures the maximum detection gates and &quot;no&#45;one&quot; timeout on the sensor.">
<polygon fill="white" stroke="#666666" points="353,-851.5 205.75,-851.5 205.75,-821 353,-821 353,-851.5"/>
<text text-anchor="start" x="213.75" y="-838" font-family="Helvetica,sans-Serif" font-size="10.00">LD2410Async::configureMax</text>
<text text-anchor="middle" x="279.38" y="-826.75" font-family="Helvetica,sans-Serif" font-size="10.00">GateAndNoOneTimeoutAsync</text>
</a>
</g>
</g>
<!-- Node1&#45;&gt;Node14 -->
<g id="edge14_Node000001_Node000014" class="edge">
<title>Node1&#45;&gt;Node14</title>
<g id="a_edge14_Node000001_Node000014"><a xlink:title=" ">
<path fill="none" stroke="#63b8ff" d="M453.03,-708.95C436.18,-735.92 402.37,-784.08 361.25,-811.25 355.85,-814.81 349.92,-817.89 343.8,-820.55"/>
<polygon fill="#63b8ff" stroke="#63b8ff" points="456.02,-710.77 458.23,-700.41 450.04,-707.14 456.02,-710.77"/>
</a>
</g>
</g>
<!-- Node15 -->
<g id="Node000015" class="node">
<title>Node15</title>
<g id="a_Node000015"><a xlink:href="classLD2410Async.html#a01705b527bc80949417de15b6e95140c" target="_top" xlink:title="Configures the distance resolution explicitly to 20 cm per gate.">
<polygon fill="white" stroke="#666666" points="361.25,-802.5 197.5,-802.5 197.5,-772 361.25,-772 361.25,-802.5"/>
<text text-anchor="start" x="205.5" y="-789" font-family="Helvetica,sans-Serif" font-size="10.00">LD2410Async::configuresDistance</text>
<text text-anchor="middle" x="279.38" y="-777.75" font-family="Helvetica,sans-Serif" font-size="10.00">Resolution20cmAsync</text>
</a>
</g>
</g>
<!-- Node1&#45;&gt;Node15 -->
<g id="edge15_Node000001_Node000015" class="edge">
<title>Node1&#45;&gt;Node15</title>
<g id="a_edge15_Node000001_Node000015"><a xlink:title=" ">
<path fill="none" stroke="#63b8ff" d="M444.19,-706.64C424.18,-722.93 392.25,-746.99 361.25,-762.25 354.26,-765.69 346.7,-768.78 339.1,-771.51"/>
<polygon fill="#63b8ff" stroke="#63b8ff" points="446.37,-709.38 451.84,-700.31 441.9,-703.99 446.37,-709.38"/>
</a>
</g>
</g>
<!-- Node16 -->
<g id="Node000016" class="node">
<title>Node16</title>
<g id="a_Node000016"><a xlink:href="classLD2410Async.html#addcbab1709f2a80571563609f4a23862" target="_top" xlink:title="Disables bluetooth.">
<polygon fill="white" stroke="#666666" points="356,-753.5 202.75,-753.5 202.75,-723 356,-723 356,-753.5"/>
<text text-anchor="start" x="210.75" y="-740" font-family="Helvetica,sans-Serif" font-size="10.00">LD2410Async::disableBluetooth</text>
<text text-anchor="middle" x="279.38" y="-728.75" font-family="Helvetica,sans-Serif" font-size="10.00">Async</text>
</a>
</g>
</g>
<!-- Node1&#45;&gt;Node16 -->
<g id="edge16_Node000001_Node000016" class="edge">
<title>Node1&#45;&gt;Node16</title>
<g id="a_edge16_Node000001_Node000016"><a xlink:title=" ">
<path fill="none" stroke="#63b8ff" d="M415.82,-702.23C392.38,-708.46 364.1,-715.98 339.46,-722.54"/>
<polygon fill="#63b8ff" stroke="#63b8ff" points="416.67,-705.63 425.43,-699.67 414.87,-698.86 416.67,-705.63"/>
</a>
</g>
</g>
<!-- Node17 -->
<g id="Node000017" class="node">
<title>Node17</title>
<g id="a_Node000017"><a xlink:href="classLD2410Async.html#a99910e37f7cf20d05be573fec341ef0c" target="_top" xlink:title="Disables config mode on the radar.">
<polygon fill="white" stroke="#666666" points="348.88,-704.5 209.88,-704.5 209.88,-674 348.88,-674 348.88,-704.5"/>
<text text-anchor="start" x="217.88" y="-691" font-family="Helvetica,sans-Serif" font-size="10.00">LD2410Async::disableConfig</text>
<text text-anchor="middle" x="279.38" y="-679.75" font-family="Helvetica,sans-Serif" font-size="10.00">ModeAsync</text>
</a>
</g>
</g>
<!-- Node1&#45;&gt;Node17 -->
<g id="edge17_Node000001_Node000017" class="edge">
<title>Node1&#45;&gt;Node17</title>
<g id="a_edge17_Node000001_Node000017"><a xlink:title=" ">
<path fill="none" stroke="#63b8ff" d="M385.4,-689.25C373.38,-689.25 361.06,-689.25 349.29,-689.25"/>
<polygon fill="#63b8ff" stroke="#63b8ff" points="385.29,-692.75 395.29,-689.25 385.29,-685.75 385.29,-692.75"/>
</a>
</g>
</g>
<!-- Node18 -->
<g id="Node000018" class="node">
<title>Node18</title>
<g id="a_Node000018"><a xlink:href="classLD2410Async.html#a377464026350140b0277369a13e8c1d3" target="_top" xlink:title="Disables engineering mode.">
<polygon fill="white" stroke="#666666" points="360.5,-655.5 198.25,-655.5 198.25,-625 360.5,-625 360.5,-655.5"/>
<text text-anchor="start" x="206.25" y="-642" font-family="Helvetica,sans-Serif" font-size="10.00">LD2410Async::disableEngineering</text>
<text text-anchor="middle" x="279.38" y="-630.75" font-family="Helvetica,sans-Serif" font-size="10.00">ModeAsync</text>
</a>
</g>
</g>
<!-- Node1&#45;&gt;Node18 -->
<g id="edge18_Node000001_Node000018" class="edge">
<title>Node1&#45;&gt;Node18</title>
<g id="a_edge18_Node000001_Node000018"><a xlink:title=" ">
<path fill="none" stroke="#63b8ff" d="M415.82,-676.27C392.38,-670.04 364.1,-662.52 339.46,-655.96"/>
<polygon fill="#63b8ff" stroke="#63b8ff" points="414.87,-679.64 425.43,-678.83 416.67,-672.87 414.87,-679.64"/>
</a>
</g>
</g>
<!-- Node19 -->
<g id="Node000019" class="node">
<title>Node19</title>
<g id="a_Node000019"><a xlink:href="classLD2410Async.html#a9ebecb17389f2dffb7c2d86c607be973" target="_top" xlink:title="Enables bluetooth.">
<polygon fill="white" stroke="#666666" points="354.88,-606.5 203.88,-606.5 203.88,-576 354.88,-576 354.88,-606.5"/>
<text text-anchor="start" x="211.88" y="-593" font-family="Helvetica,sans-Serif" font-size="10.00">LD2410Async::enableBluetooth</text>
<text text-anchor="middle" x="279.38" y="-581.75" font-family="Helvetica,sans-Serif" font-size="10.00">Async</text>
</a>
</g>
</g>
<!-- Node1&#45;&gt;Node19 -->
<g id="edge19_Node000001_Node000019" class="edge">
<title>Node1&#45;&gt;Node19</title>
<g id="a_edge19_Node000001_Node000019"><a xlink:title=" ">
<path fill="none" stroke="#63b8ff" d="M444.19,-671.86C424.18,-655.57 392.25,-631.51 361.25,-616.25 354.26,-612.81 346.7,-609.72 339.1,-606.99"/>
<polygon fill="#63b8ff" stroke="#63b8ff" points="441.9,-674.51 451.84,-678.19 446.37,-669.12 441.9,-674.51"/>
</a>
</g>
</g>
<!-- Node20 -->
<g id="Node000020" class="node">
<title>Node20</title>
<g id="a_Node000020"><a xlink:href="classLD2410Async.html#ad24f13c9381aa35460908b4c0edb5fa9" target="_top" xlink:title="Enables config mode on the radar.">
<polygon fill="white" stroke="#666666" points="347.75,-557.5 211,-557.5 211,-527 347.75,-527 347.75,-557.5"/>
<text text-anchor="start" x="219" y="-544" font-family="Helvetica,sans-Serif" font-size="10.00">LD2410Async::enableConfig</text>
<text text-anchor="middle" x="279.38" y="-532.75" font-family="Helvetica,sans-Serif" font-size="10.00">ModeAsync</text>
</a>
</g>
</g>
<!-- Node1&#45;&gt;Node20 -->
<g id="edge20_Node000001_Node000020" class="edge">
<title>Node1&#45;&gt;Node20</title>
<g id="a_edge20_Node000001_Node000020"><a xlink:title=" ">
<path fill="none" stroke="#63b8ff" d="M453.03,-669.55C436.18,-642.58 402.37,-594.42 361.25,-567.25 355.85,-563.69 349.92,-560.61 343.8,-557.95"/>
<polygon fill="#63b8ff" stroke="#63b8ff" points="450.04,-671.36 458.23,-678.09 456.02,-667.73 450.04,-671.36"/>
</a>
</g>
</g>
<!-- Node21 -->
<g id="Node000021" class="node">
<title>Node21</title>
<g id="a_Node000021"><a xlink:href="classLD2410Async.html#ad7b1c7d38ac3948ebf159b20e1a3bb1d" target="_top" xlink:title="Enables engineering mode.">
<polygon fill="white" stroke="#666666" points="359.38,-508.5 199.38,-508.5 199.38,-478 359.38,-478 359.38,-508.5"/>
<text text-anchor="start" x="207.38" y="-495" font-family="Helvetica,sans-Serif" font-size="10.00">LD2410Async::enableEngineering</text>
<text text-anchor="middle" x="279.38" y="-483.75" font-family="Helvetica,sans-Serif" font-size="10.00">ModeAsync</text>
</a>
</g>
</g>
<!-- Node1&#45;&gt;Node21 -->
<g id="edge21_Node000001_Node000021" class="edge">
<title>Node1&#45;&gt;Node21</title>
<g id="a_edge21_Node000001_Node000021"><a xlink:title=" ">
<path fill="none" stroke="#63b8ff" d="M457.82,-668.86C444.83,-633.04 413.06,-558.75 361.25,-518.25 356.62,-514.63 351.46,-511.53 346.05,-508.88"/>
<polygon fill="#63b8ff" stroke="#63b8ff" points="454.41,-669.72 461.01,-678.01 461.02,-667.41 454.41,-669.72"/>
</a>
</g>
</g>
<!-- Node22 -->
<g id="Node000022" class="node">
<title>Node22</title>
<g id="a_Node000022"><a xlink:href="classLD2410Async.html#aeb856d32612fba953b07280cf5d9a235" target="_top" xlink:title="Reboots the sensor.">
<polygon fill="white" stroke="#666666" points="347,-459.88 211.75,-459.88 211.75,-440.62 347,-440.62 347,-459.88"/>
<text text-anchor="middle" x="279.38" y="-446.38" font-family="Helvetica,sans-Serif" font-size="10.00">LD2410Async::rebootAsync</text>
</a>
</g>
</g>
<!-- Node1&#45;&gt;Node22 -->
<g id="edge22_Node000001_Node000022" class="edge">
<title>Node1&#45;&gt;Node22</title>
<g id="a_edge22_Node000001_Node000022"><a xlink:title=" ">
<path fill="none" stroke="#63b8ff" d="M461.04,-668.26C452.37,-624.18 426,-521.73 361.25,-469.25 356.77,-465.62 351.71,-462.66 346.37,-460.24"/>
<polygon fill="#63b8ff" stroke="#63b8ff" points="457.58,-668.81 462.84,-678.01 464.47,-667.55 457.58,-668.81"/>
</a>
</g>
</g>
<!-- Node23 -->
<g id="Node000023" class="node">
<title>Node23</title>
<g id="a_Node000023"><a xlink:href="classLD2410Async.html#ab578ee25526c8bb808fe7200fae95a38" target="_top" xlink:title="Requests all configuration settings from the sensor.">
<polygon fill="white" stroke="#666666" points="355.25,-422.5 203.5,-422.5 203.5,-392 355.25,-392 355.25,-422.5"/>
<text text-anchor="start" x="211.5" y="-409" font-family="Helvetica,sans-Serif" font-size="10.00">LD2410Async::requestAllConfig</text>
<text text-anchor="middle" x="279.38" y="-397.75" font-family="Helvetica,sans-Serif" font-size="10.00">SettingsAsync</text>
</a>
</g>
</g>
<!-- Node1&#45;&gt;Node23 -->
<g id="edge23_Node000001_Node000023" class="edge">
<title>Node1&#45;&gt;Node23</title>
<g id="a_edge23_Node000001_Node000023"><a xlink:title=" ">
<path fill="none" stroke="#63b8ff" d="M462.33,-668.05C455.89,-618.97 433.11,-496.74 361.25,-431.25 357.79,-428.09 353.92,-425.35 349.82,-422.97"/>
<polygon fill="#63b8ff" stroke="#63b8ff" points="458.85,-668.35 463.51,-677.86 465.8,-667.51 458.85,-668.35"/>
</a>
</g>
</g>
<!-- Node24 -->
<g id="Node000024" class="node">
<title>Node24</title>
<g id="a_Node000024"><a xlink:href="classLD2410Async.html#a86968c2e9be09d9acb6b62ad7496a2a6" target="_top" xlink:title="Requests all static information from the sensor.">
<polygon fill="white" stroke="#666666" points="354.5,-373.5 204.25,-373.5 204.25,-343 354.5,-343 354.5,-373.5"/>
<text text-anchor="start" x="212.25" y="-360" font-family="Helvetica,sans-Serif" font-size="10.00">LD2410Async::requestAllStatic</text>
<text text-anchor="middle" x="279.38" y="-348.75" font-family="Helvetica,sans-Serif" font-size="10.00">DataAsync</text>
</a>
</g>
</g>
<!-- Node1&#45;&gt;Node24 -->
<g id="edge24_Node000001_Node000024" class="edge">
<title>Node1&#45;&gt;Node24</title>
<g id="a_edge24_Node000001_Node000024"><a xlink:title=" ">
<path fill="none" stroke="#63b8ff" d="M463.8,-668.01C460.5,-612.86 443.98,-463.86 361.25,-383.25 357.57,-379.66 353.38,-376.59 348.89,-373.95"/>
<polygon fill="#63b8ff" stroke="#63b8ff" points="460.3,-668.05 464.29,-677.86 467.29,-667.7 460.3,-668.05"/>
</a>
</g>
</g>
<!-- Node25 -->
<g id="Node000025" class="node">
<title>Node25</title>
<g id="a_Node000025"><a xlink:href="classLD2410Async.html#ad219580b6e47f54a8aac0847e2054bf6" target="_top" xlink:title="Requests the current status of the auto&#45;config routine.">
<polygon fill="white" stroke="#666666" points="346.25,-324.5 212.5,-324.5 212.5,-294 346.25,-294 346.25,-324.5"/>
<text text-anchor="start" x="220.5" y="-311" font-family="Helvetica,sans-Serif" font-size="10.00">LD2410Async::requestAuto</text>
<text text-anchor="middle" x="279.38" y="-299.75" font-family="Helvetica,sans-Serif" font-size="10.00">ConfigStatusAsync</text>
</a>
</g>
</g>
<!-- Node1&#45;&gt;Node25 -->
<g id="edge25_Node000001_Node000025" class="edge">
<title>Node1&#45;&gt;Node25</title>
<g id="a_edge25_Node000001_Node000025"><a xlink:title=" ">
<path fill="none" stroke="#63b8ff" d="M464.97,-667.96C464.75,-607.03 455.61,-430.18 361.25,-334.25 357.02,-329.95 352.08,-326.39 346.75,-323.44"/>
<polygon fill="#63b8ff" stroke="#63b8ff" points="461.47,-667.89 464.91,-677.91 468.47,-667.93 461.47,-667.89"/>
</a>
</g>
</g>
<!-- Node26 -->
<g id="Node000026" class="node">
<title>Node26</title>
<g id="a_Node000026"><a xlink:href="classLD2410Async.html#afaa6e2c1842ebd96c6e04fe542af66cb" target="_top" xlink:title="Requests the current auxiliary control settings.">
<polygon fill="white" stroke="#666666" points="359.75,-275.5 199,-275.5 199,-245 359.75,-245 359.75,-275.5"/>
<text text-anchor="start" x="207" y="-262" font-family="Helvetica,sans-Serif" font-size="10.00">LD2410Async::requestAuxControl</text>
<text text-anchor="middle" x="279.38" y="-250.75" font-family="Helvetica,sans-Serif" font-size="10.00">SettingsAsync</text>
</a>
</g>
</g>
<!-- Node1&#45;&gt;Node26 -->
<g id="edge26_Node000001_Node000026" class="edge">
<title>Node1&#45;&gt;Node26</title>
<g id="a_edge26_Node000001_Node000026"><a xlink:title=" ">
<path fill="none" stroke="#63b8ff" d="M461.99,-668.38C452.17,-593.84 415.51,-342.26 361.25,-285.25 357.8,-281.63 353.85,-278.53 349.58,-275.88"/>
<polygon fill="#63b8ff" stroke="#63b8ff" points="458.47,-668.49 463.23,-677.96 465.41,-667.59 458.47,-668.49"/>
</a>
</g>
</g>
<!-- Node27 -->
<g id="Node000027" class="node">
<title>Node27</title>
<g id="a_Node000027"><a xlink:href="classLD2410Async.html#a3923c4b746d90fbd314eae7094bb90be" target="_top" xlink:title="Requests the bluetooth mac address.">
<polygon fill="white" stroke="#666666" points="356.75,-226.5 202,-226.5 202,-196 356.75,-196 356.75,-226.5"/>
<text text-anchor="start" x="210" y="-213" font-family="Helvetica,sans-Serif" font-size="10.00">LD2410Async::requestBluetooth</text>
<text text-anchor="middle" x="279.38" y="-201.75" font-family="Helvetica,sans-Serif" font-size="10.00">MacAddressAsync</text>
</a>
</g>
</g>
<!-- Node1&#45;&gt;Node27 -->
<g id="edge27_Node000001_Node000027" class="edge">
<title>Node1&#45;&gt;Node27</title>
<g id="a_edge27_Node000001_Node000027"><a xlink:title=" ">
<path fill="none" stroke="#63b8ff" d="M462.62,-668.48C454.49,-588.43 421.51,-301.24 361.25,-236.25 357.85,-232.59 353.93,-229.45 349.68,-226.78"/>
<polygon fill="#63b8ff" stroke="#63b8ff" points="459.09,-668.37 463.56,-677.97 466.06,-667.68 459.09,-668.37"/>
</a>
</g>
</g>
<!-- Node28 -->
<g id="Node000028" class="node">
<title>Node28</title>
<g id="a_Node000028"><a xlink:href="classLD2410Async.html#a3260f74672079a7200f210e4ffde1046" target="_top" xlink:title="Requests the current distance resolution setting from the sensor.">
<polygon fill="white" stroke="#666666" points="355.25,-177.5 203.5,-177.5 203.5,-147 355.25,-147 355.25,-177.5"/>
<text text-anchor="start" x="211.5" y="-164" font-family="Helvetica,sans-Serif" font-size="10.00">LD2410Async::requestDistance</text>
<text text-anchor="middle" x="279.38" y="-152.75" font-family="Helvetica,sans-Serif" font-size="10.00">ResolutioncmAsync</text>
</a>
</g>
</g>
<!-- Node1&#45;&gt;Node28 -->
<g id="edge28_Node000001_Node000028" class="edge">
<title>Node1&#45;&gt;Node28</title>
<g id="a_edge28_Node000001_Node000028"><a xlink:title=" ">
<path fill="none" stroke="#63b8ff" d="M463.08,-667.92C456.4,-581.7 427.38,-260.1 361.25,-187.25 357.99,-183.66 354.23,-180.58 350.14,-177.94"/>
<polygon fill="#63b8ff" stroke="#63b8ff" points="459.58,-668.05 463.82,-677.76 466.56,-667.53 459.58,-668.05"/>
</a>
</g>
</g>
<!-- Node29 -->
<g id="Node000029" class="node">
<title>Node29</title>
<g id="a_Node000029"><a xlink:href="classLD2410Async.html#a5eeae3b4525a303e0e3bc208c4bcff21" target="_top" xlink:title="Requests the firmware version of the sensor.">
<polygon fill="white" stroke="#666666" points="356.38,-128.5 202.38,-128.5 202.38,-98 356.38,-98 356.38,-128.5"/>
<text text-anchor="start" x="210.38" y="-115" font-family="Helvetica,sans-Serif" font-size="10.00">LD2410Async::requestFirmware</text>
<text text-anchor="middle" x="279.38" y="-103.75" font-family="Helvetica,sans-Serif" font-size="10.00">Async</text>
</a>
</g>
</g>
<!-- Node1&#45;&gt;Node29 -->
<g id="edge29_Node000001_Node000029" class="edge">
<title>Node1&#45;&gt;Node29</title>
<g id="a_edge29_Node000001_Node000029"><a xlink:title=" ">
<path fill="none" stroke="#63b8ff" d="M463.5,-667.91C458.26,-576.54 433.41,-219.17 361.25,-138.25 358.02,-134.63 354.28,-131.53 350.22,-128.87"/>
<polygon fill="#63b8ff" stroke="#63b8ff" points="459.99,-667.89 464.04,-677.68 466.98,-667.51 459.99,-667.89"/>
</a>
</g>
</g>
<!-- Node30 -->
<g id="Node000030" class="node">
<title>Node30</title>
<g id="a_Node000030"><a xlink:href="classLD2410Async.html#ad7bfb9c212c452898053f167555a0bb6" target="_top" xlink:title="Requests the current gate parameters from the sensor.">
<polygon fill="white" stroke="#666666" points="346.62,-79.5 212.12,-79.5 212.12,-49 346.62,-49 346.62,-79.5"/>
<text text-anchor="start" x="220.12" y="-66" font-family="Helvetica,sans-Serif" font-size="10.00">LD2410Async::requestGate</text>
<text text-anchor="middle" x="279.38" y="-54.75" font-family="Helvetica,sans-Serif" font-size="10.00">ParametersAsync</text>
</a>
</g>
</g>
<!-- Node1&#45;&gt;Node30 -->
<g id="edge30_Node000001_Node000030" class="edge">
<title>Node1&#45;&gt;Node30</title>
<g id="a_edge30_Node000001_Node000030"><a xlink:title=" ">
<path fill="none" stroke="#63b8ff" d="M463.86,-667.89C459.97,-571.54 439.45,-178.27 361.25,-89.25 357.18,-84.61 352.26,-80.82 346.89,-77.73"/>
<polygon fill="#63b8ff" stroke="#63b8ff" points="460.35,-667.86 464.23,-677.72 467.35,-667.6 460.35,-667.86"/>
</a>
</g>
</g>
<!-- Node31 -->
<g id="Node000031" class="node">
<title>Node31</title>
<g id="a_Node000031"><a xlink:href="classLD2410Async.html#aadb841697a992c1bf203944211bd8659" target="_top" xlink:title="Restores factory settings of the sensor.">
<polygon fill="white" stroke="#666666" points="351.12,-30.5 207.62,-30.5 207.62,0 351.12,0 351.12,-30.5"/>
<text text-anchor="start" x="215.62" y="-17" font-family="Helvetica,sans-Serif" font-size="10.00">LD2410Async::restoreFactory</text>
<text text-anchor="middle" x="279.38" y="-5.75" font-family="Helvetica,sans-Serif" font-size="10.00">SettingsAsync</text>
</a>
</g>
</g>
<!-- Node1&#45;&gt;Node31 -->
<g id="edge31_Node000001_Node000031" class="edge">
<title>Node1&#45;&gt;Node31</title>
<g id="a_edge31_Node000001_Node000031"><a xlink:title=" ">
<path fill="none" stroke="#63b8ff" d="M464.17,-668.1C461.56,-567.4 445.58,-137.48 361.25,-40.25 358.07,-36.59 354.37,-33.45 350.33,-30.77"/>
<polygon fill="#63b8ff" stroke="#63b8ff" points="460.66,-667.96 464.4,-677.87 467.66,-667.79 460.66,-667.96"/>
</a>
</g>
</g>
<!-- Node5&#45;&gt;Node6 -->
<g id="edge5_Node000005_Node000006" class="edge">
<title>Node5&#45;&gt;Node6</title>
<g id="a_edge5_Node000005_Node000006"><a xlink:title=" ">
<path fill="none" stroke="#63b8ff" d="M196.59,-1208.35C181.94,-1206.93 166.79,-1205.47 152.49,-1204.09"/>
<polygon fill="#63b8ff" stroke="#63b8ff" points="195.87,-1211.79 206.16,-1209.27 196.54,-1204.83 195.87,-1211.79"/>
</a>
</g>
</g>
<!-- Node8 -->
<g id="Node000008" class="node">
<title>Node8</title>
<g id="a_Node000008"><a xlink:href="classLD2410Async.html#abfe79850fa3e040a12de72ea99747266" target="_top" xlink:title="Sets the password for bluetooth access to the sensor.">
<polygon fill="white" stroke="#666666" points="161.5,-1145.5 0,-1145.5 0,-1115 161.5,-1115 161.5,-1145.5"/>
<text text-anchor="start" x="8" y="-1132" font-family="Helvetica,sans-Serif" font-size="10.00">LD2410Async::configureBluetooth</text>
<text text-anchor="middle" x="80.75" y="-1120.75" font-family="Helvetica,sans-Serif" font-size="10.00">PasswordAsync</text>
</a>
</g>
</g>
<!-- Node7&#45;&gt;Node8 -->
<g id="edge8_Node000007_Node000008" class="edge">
<title>Node7&#45;&gt;Node8</title>
<g id="a_edge8_Node000007_Node000008"><a xlink:title=" ">
<path fill="none" stroke="#63b8ff" d="M187.05,-1130.25C178.68,-1130.25 170.24,-1130.25 161.97,-1130.25"/>
<polygon fill="#63b8ff" stroke="#63b8ff" points="186.89,-1133.75 196.89,-1130.25 186.89,-1126.75 186.89,-1133.75"/>
</a>
</g>
</g>
</g>
</svg>
