<?xml version="1.0" encoding="UTF-8" standalone="no"?>
<!DOCTYPE svg PUBLIC "-//W3C//DTD SVG 1.1//EN"
 "http://www.w3.org/Graphics/SVG/1.1/DTD/svg11.dtd">
<!-- Generated by graphviz version 12.2.0 (20241103.1931)
 -->
<!-- Title: LD2410Async::configureBaudRateAsync Pages: 1 -->
<svg width="502pt" height="76pt"
 viewBox="0.00 0.00 502.25 75.88" xmlns="http://www.w3.org/2000/svg" xmlns:xlink="http://www.w3.org/1999/xlink">
<g id="graph0" class="graph" transform="scale(1 1) rotate(0) translate(4 71.88)">
<title>LD2410Async::configureBaudRateAsync</title>
<!-- Node1 -->
<g id="Node000001" class="node">
<title>Node1</title>
<g id="a_Node000001"><a xlink:title="Configures the baudrate of the serial port of the sensor.">
<polygon fill="#999999" stroke="#666666" points="142.75,-51.5 0,-51.5 0,-21 142.75,-21 142.75,-51.5"/>
<text text-anchor="start" x="8" y="-38" font-family="Helvetica,sans-Serif" font-size="10.00">LD2410Async::configureBaud</text>
<text text-anchor="middle" x="71.38" y="-26.75" font-family="Helvetica,sans-Serif" font-size="10.00">RateAsync</text>
</a>
</g>
</g>
<!-- Node2 -->
<g id="Node000002" class="node">
<title>Node2</title>
<g id="a_Node000002"><a xlink:href="classLD2410Async.html#a72e853afaba8373fb90524c3c4e8a153" target="_top" xlink:title="Checks if an asynchronous command is currently pending.">
<polygon fill="white" stroke="#666666" points="494.25,-67.88 357.5,-67.88 357.5,-48.62 494.25,-48.62 494.25,-67.88"/>
<text text-anchor="middle" x="425.88" y="-54.38" font-family="Helvetica,sans-Serif" font-size="10.00">LD2410Async::asyncIsBusy</text>
</a>
</g>
</g>
<!-- Node1&#45;&gt;Node2 -->
<g id="edge1_Node000001_Node000002" class="edge">
<title>Node1&#45;&gt;Node2</title>
<g id="a_edge1_Node000001_Node000002"><a xlink:title=" ">
<path fill="none" stroke="#63b8ff" d="M142.86,-40.65C201.47,-44.31 284.83,-49.51 345.72,-53.31"/>
<polygon fill="#63b8ff" stroke="#63b8ff" points="345.49,-56.8 355.69,-53.93 345.93,-49.82 345.49,-56.8"/>
</a>
</g>
</g>
<!-- Node3 -->
<g id="Node000003" class="node">
<title>Node3</title>
<g id="a_Node000003"><a xlink:href="classLD2410Async.html#a39aa1e94b76c2a08d96ab80fe2c9ed9c" target="_top" xlink:title="Configures the UART baud rate of the sensor.">
<polygon fill="white" stroke="#666666" points="321.5,-30.5 178.75,-30.5 178.75,0 321.5,0 321.5,-30.5"/>
<text text-anchor="start" x="186.75" y="-17" font-family="Helvetica,sans-Serif" font-size="10.00">LD2410Async::configureBaud</text>
<text text-anchor="middle" x="250.12" y="-5.75" font-family="Helvetica,sans-Serif" font-size="10.00">RateAsync</text>
</a>
</g>
</g>
<!-- Node1&#45;&gt;Node3 -->
<g id="edge2_Node000001_Node000003" class="edge">
<title>Node1&#45;&gt;Node3</title>
<g id="a_edge2_Node000001_Node000003"><a xlink:title=" ">
<path fill="none" stroke="#63b8ff" d="M143.25,-27.83C151.15,-26.89 159.24,-25.93 167.26,-24.98"/>
<polygon fill="#63b8ff" stroke="#63b8ff" points="167.5,-28.47 177.02,-23.82 166.68,-21.52 167.5,-28.47"/>
</a>
</g>
</g>
<!-- Node3&#45;&gt;Node2 -->
<g id="edge3_Node000003_Node000002" class="edge">
<title>Node3&#45;&gt;Node2</title>
<g id="a_edge3_Node000003_Node000002"><a xlink:title=" ">
<path fill="none" stroke="#63b8ff" d="M314.34,-30.9C333.63,-35.67 354.6,-40.86 373.04,-45.42"/>
<polygon fill="#63b8ff" stroke="#63b8ff" points="372.13,-48.8 382.68,-47.81 373.82,-42.01 372.13,-48.8"/>
</a>
</g>
</g>
<!-- Node4 -->
<g id="Node000004" class="node">
<title>Node4</title>
<g id="a_Node000004"><a xlink:href="namespaceLD2410CommandBuilder.html#af8eb163ccaa819b1504b79459ed48729" target="_top" xlink:title=" ">
<polygon fill="white" stroke="#666666" points="489.75,-30.5 362,-30.5 362,0 489.75,0 489.75,-30.5"/>
<text text-anchor="start" x="370" y="-17" font-family="Helvetica,sans-Serif" font-size="10.00">LD2410CommandBuilder</text>
<text text-anchor="middle" x="425.88" y="-5.75" font-family="Helvetica,sans-Serif" font-size="10.00">::buildBaudRateCommand</text>
</a>
</g>
</g>
<!-- Node3&#45;&gt;Node4 -->
<g id="edge4_Node000003_Node000004" class="edge">
<title>Node3&#45;&gt;Node4</title>
<g id="a_edge4_Node000003_Node000004"><a xlink:title=" ">
<path fill="none" stroke="#63b8ff" d="M321.8,-15.25C331.15,-15.25 340.76,-15.25 350.17,-15.25"/>
<polygon fill="#63b8ff" stroke="#63b8ff" points="350.02,-18.75 360.02,-15.25 350.02,-11.75 350.02,-18.75"/>
</a>
</g>
</g>
</g>
</svg>
