<?xml version="1.0" encoding="UTF-8" standalone="no"?>
<!DOCTYPE svg PUBLIC "-//W3C//DTD SVG 1.1//EN"
 "http://www.w3.org/Graphics/SVG/1.1/DTD/svg11.dtd">
<!-- Generated by graphviz version 12.2.0 (20241103.1931)
 -->
<!-- Title: LD2410Async::configureMaxGateAndNoOneTimeoutAsync Pages: 1 -->
<svg width="328pt" height="76pt"
 viewBox="0.00 0.00 328.00 75.88" xmlns="http://www.w3.org/2000/svg" xmlns:xlink="http://www.w3.org/1999/xlink">
<g id="graph0" class="graph" transform="scale(1 1) rotate(0) translate(4 71.88)">
<title>LD2410Async::configureMaxGateAndNoOneTimeoutAsync</title>
<!-- Node1 -->
<g id="Node000001" class="node">
<title>Node1</title>
<g id="a_Node000001"><a xlink:title="Configures the maximum detection gates and &quot;no&#45;one&quot; timeout on the sensor.">
<polygon fill="#999999" stroke="#666666" points="147.25,-51.5 0,-51.5 0,-21 147.25,-21 147.25,-51.5"/>
<text text-anchor="start" x="8" y="-38" font-family="Helvetica,sans-Serif" font-size="10.00">LD2410Async::configureMax</text>
<text text-anchor="middle" x="73.62" y="-26.75" font-family="Helvetica,sans-Serif" font-size="10.00">GateAndNoOneTimeoutAsync</text>
</a>
</g>
</g>
<!-- Node2 -->
<g id="Node000002" class="node">
<title>Node2</title>
<g id="a_Node000002"><a xlink:href="classLD2410Async.html#a72e853afaba8373fb90524c3c4e8a153" target="_top" xlink:title="Checks if an asynchronous command is currently pending.">
<polygon fill="white" stroke="#666666" points="320,-67.88 183.25,-67.88 183.25,-48.62 320,-48.62 320,-67.88"/>
<text text-anchor="middle" x="251.62" y="-54.38" font-family="Helvetica,sans-Serif" font-size="10.00">LD2410Async::asyncIsBusy</text>
</a>
</g>
</g>
<!-- Node1&#45;&gt;Node2 -->
<g id="edge1_Node000001_Node000002" class="edge">
<title>Node1&#45;&gt;Node2</title>
<g id="a_edge1_Node000001_Node000002"><a xlink:title=" ">
<path fill="none" stroke="#63b8ff" d="M147.74,-45.39C155.63,-46.38 163.69,-47.38 171.65,-48.38"/>
<polygon fill="#63b8ff" stroke="#63b8ff" points="170.96,-51.82 181.31,-49.59 171.82,-44.87 170.96,-51.82"/>
</a>
</g>
</g>
<!-- Node3 -->
<g id="Node000003" class="node">
<title>Node3</title>
<g id="a_Node000003"><a xlink:href="namespaceLD2410CommandBuilder.html#a1891c87b48a0ec24a7a6066fe48bd63e" target="_top" xlink:title=" ">
<polygon fill="white" stroke="#666666" points="313.62,-30.5 189.62,-30.5 189.62,0 313.62,0 313.62,-30.5"/>
<text text-anchor="start" x="197.62" y="-17" font-family="Helvetica,sans-Serif" font-size="10.00">LD2410CommandBuilder</text>
<text text-anchor="middle" x="251.62" y="-5.75" font-family="Helvetica,sans-Serif" font-size="10.00">::buildMaxGateCommand</text>
</a>
</g>
</g>
<!-- Node1&#45;&gt;Node3 -->
<g id="edge2_Node000001_Node000003" class="edge">
<title>Node1&#45;&gt;Node3</title>
<g id="a_edge2_Node000001_Node000003"><a xlink:title=" ">
<path fill="none" stroke="#63b8ff" d="M147.74,-27.53C157.75,-26.33 168.04,-25.1 178.05,-23.91"/>
<polygon fill="#63b8ff" stroke="#63b8ff" points="178.18,-27.42 187.7,-22.76 177.35,-20.47 178.18,-27.42"/>
</a>
</g>
</g>
</g>
</svg>
