<?xml version="1.0" encoding="UTF-8" standalone="no"?>
<!DOCTYPE svg PUBLIC "-//W3C//DTD SVG 1.1//EN"
 "http://www.w3.org/Graphics/SVG/1.1/DTD/svg11.dtd">
<!-- Generated by graphviz version 12.2.0 (20241103.1931)
 -->
<!-- Title: LD2410Async::configureAllConfigSettingsAsync Pages: 1 -->
<svg width="315pt" height="125pt"
 viewBox="0.00 0.00 315.25 124.88" xmlns="http://www.w3.org/2000/svg" xmlns:xlink="http://www.w3.org/1999/xlink">
<g id="graph0" class="graph" transform="scale(1 1) rotate(0) translate(4 120.88)">
<title>LD2410Async::configureAllConfigSettingsAsync</title>
<!-- Node1 -->
<g id="Node000001" class="node">
<title>Node1</title>
<g id="a_Node000001"><a xlink:title="Applies a full ConfigData struct to the LD2410.">
<polygon fill="#999999" stroke="#666666" points="131.5,-79.5 0,-79.5 0,-49 131.5,-49 131.5,-79.5"/>
<text text-anchor="start" x="8" y="-66" font-family="Helvetica,sans-Serif" font-size="10.00">LD2410Async::configureAll</text>
<text text-anchor="middle" x="65.75" y="-54.75" font-family="Helvetica,sans-Serif" font-size="10.00">ConfigSettingsAsync</text>
</a>
</g>
</g>
<!-- Node2 -->
<g id="Node000002" class="node">
<title>Node2</title>
<g id="a_Node000002"><a xlink:href="classLD2410Async.html#a72e853afaba8373fb90524c3c4e8a153" target="_top" xlink:title="Checks if an asynchronous command is currently pending.">
<polygon fill="white" stroke="#666666" points="305.75,-116.88 169,-116.88 169,-97.62 305.75,-97.62 305.75,-116.88"/>
<text text-anchor="middle" x="237.38" y="-103.38" font-family="Helvetica,sans-Serif" font-size="10.00">LD2410Async::asyncIsBusy</text>
</a>
</g>
</g>
<!-- Node1&#45;&gt;Node2 -->
<g id="edge1_Node000001_Node000002" class="edge">
<title>Node1&#45;&gt;Node2</title>
<g id="a_edge1_Node000001_Node000002"><a xlink:title=" ">
<path fill="none" stroke="#63b8ff" d="M128.47,-79.9C147.21,-84.65 167.57,-89.81 185.51,-94.36"/>
<polygon fill="#63b8ff" stroke="#63b8ff" points="184.6,-97.74 195.15,-96.8 186.32,-90.95 184.6,-97.74"/>
</a>
</g>
</g>
<!-- Node3 -->
<g id="Node000003" class="node">
<title>Node3</title>
<g id="a_Node000003"><a xlink:href="classLD2410Async.html#a250de0cee1571020fa8b8f97ba9baa48" target="_top" xlink:title="Detects if config mode is enabled.">
<polygon fill="white" stroke="#666666" points="307.25,-79.5 167.5,-79.5 167.5,-49 307.25,-49 307.25,-79.5"/>
<text text-anchor="start" x="175.5" y="-66" font-family="Helvetica,sans-Serif" font-size="10.00">LD2410Async::isConfigMode</text>
<text text-anchor="middle" x="237.38" y="-54.75" font-family="Helvetica,sans-Serif" font-size="10.00">Enabled</text>
</a>
</g>
</g>
<!-- Node1&#45;&gt;Node3 -->
<g id="edge2_Node000001_Node000003" class="edge">
<title>Node1&#45;&gt;Node3</title>
<g id="a_edge2_Node000001_Node000003"><a xlink:title=" ">
<path fill="none" stroke="#63b8ff" d="M131.85,-64.25C139.72,-64.25 147.83,-64.25 155.9,-64.25"/>
<polygon fill="#63b8ff" stroke="#63b8ff" points="155.72,-67.75 165.72,-64.25 155.72,-60.75 155.72,-67.75"/>
</a>
</g>
</g>
<!-- Node4 -->
<g id="Node000004" class="node">
<title>Node4</title>
<g id="a_Node000004"><a xlink:href="structLD2410Types_1_1ConfigData.html#a78c2665adcc382224455dfde7f05b885" target="_top" xlink:title="Validates the configuration data for correctness.">
<polygon fill="white" stroke="#666666" points="301.25,-30.5 173.5,-30.5 173.5,0 301.25,0 301.25,-30.5"/>
<text text-anchor="start" x="181.5" y="-17" font-family="Helvetica,sans-Serif" font-size="10.00">LD2410Types::ConfigData</text>
<text text-anchor="middle" x="237.38" y="-5.75" font-family="Helvetica,sans-Serif" font-size="10.00">::isValid</text>
</a>
</g>
</g>
<!-- Node1&#45;&gt;Node4 -->
<g id="edge3_Node000001_Node000004" class="edge">
<title>Node1&#45;&gt;Node4</title>
<g id="a_edge3_Node000001_Node000004"><a xlink:title=" ">
<path fill="none" stroke="#63b8ff" d="M120.89,-48.61C136.87,-43.99 154.54,-38.89 171.15,-34.09"/>
<polygon fill="#63b8ff" stroke="#63b8ff" points="171.79,-37.55 180.43,-31.41 169.85,-30.83 171.79,-37.55"/>
</a>
</g>
</g>
</g>
</svg>
