<?xml version="1.0" encoding="UTF-8" standalone="no"?>
<!DOCTYPE svg PUBLIC "-//W3C//DTD SVG 1.1//EN"
 "http://www.w3.org/Graphics/SVG/1.1/DTD/svg11.dtd">
<!-- Generated by graphviz version 12.2.0 (20241103.1931)
 -->
<!-- Title: LD2410Async::configureBaudRateAsync Pages: 1 -->
<svg width="324pt" height="76pt"
 viewBox="0.00 0.00 323.50 75.88" xmlns="http://www.w3.org/2000/svg" xmlns:xlink="http://www.w3.org/1999/xlink">
<g id="graph0" class="graph" transform="scale(1 1) rotate(0) translate(4 71.88)">
<title>LD2410Async::configureBaudRateAsync</title>
<!-- Node1 -->
<g id="Node000001" class="node">
<title>Node1</title>
<g id="a_Node000001"><a xlink:title="Configures the UART baud rate of the sensor.">
<polygon fill="#999999" stroke="#666666" points="142.75,-51.5 0,-51.5 0,-21 142.75,-21 142.75,-51.5"/>
<text text-anchor="start" x="8" y="-38" font-family="Helvetica,sans-Serif" font-size="10.00">LD2410Async::configureBaud</text>
<text text-anchor="middle" x="71.38" y="-26.75" font-family="Helvetica,sans-Serif" font-size="10.00">RateAsync</text>
</a>
</g>
</g>
<!-- Node2 -->
<g id="Node000002" class="node">
<title>Node2</title>
<g id="a_Node000002"><a xlink:href="classLD2410Async.html#a72e853afaba8373fb90524c3c4e8a153" target="_top" xlink:title="Checks if an asynchronous command is currently pending.">
<polygon fill="white" stroke="#666666" points="315.5,-67.88 178.75,-67.88 178.75,-48.62 315.5,-48.62 315.5,-67.88"/>
<text text-anchor="middle" x="247.12" y="-54.38" font-family="Helvetica,sans-Serif" font-size="10.00">LD2410Async::asyncIsBusy</text>
</a>
</g>
</g>
<!-- Node1&#45;&gt;Node2 -->
<g id="edge1_Node000001_Node000002" class="edge">
<title>Node1&#45;&gt;Node2</title>
<g id="a_edge1_Node000001_Node000002"><a xlink:title=" ">
<path fill="none" stroke="#63b8ff" d="M143.05,-45.2C150.96,-46.2 159.07,-47.23 167.08,-48.24"/>
<polygon fill="#63b8ff" stroke="#63b8ff" points="166.46,-51.69 176.83,-49.48 167.34,-44.75 166.46,-51.69"/>
</a>
</g>
</g>
<!-- Node3 -->
<g id="Node000003" class="node">
<title>Node3</title>
<g id="a_Node000003"><a xlink:href="namespaceLD2410CommandBuilder.html#af8eb163ccaa819b1504b79459ed48729" target="_top" xlink:title=" ">
<polygon fill="white" stroke="#666666" points="311,-30.5 183.25,-30.5 183.25,0 311,0 311,-30.5"/>
<text text-anchor="start" x="191.25" y="-17" font-family="Helvetica,sans-Serif" font-size="10.00">LD2410CommandBuilder</text>
<text text-anchor="middle" x="247.12" y="-5.75" font-family="Helvetica,sans-Serif" font-size="10.00">::buildBaudRateCommand</text>
</a>
</g>
</g>
<!-- Node1&#45;&gt;Node3 -->
<g id="edge2_Node000001_Node000003" class="edge">
<title>Node1&#45;&gt;Node3</title>
<g id="a_edge2_Node000001_Node000003"><a xlink:title=" ">
<path fill="none" stroke="#63b8ff" d="M143.05,-27.71C152.4,-26.58 162.01,-25.42 171.42,-24.28"/>
<polygon fill="#63b8ff" stroke="#63b8ff" points="171.77,-27.76 181.28,-23.09 170.93,-20.81 171.77,-27.76"/>
</a>
</g>
</g>
</g>
</svg>
