<?xml version="1.0" encoding="UTF-8" standalone="no"?>
<!DOCTYPE svg PUBLIC "-//W3C//DTD SVG 1.1//EN"
 "http://www.w3.org/Graphics/SVG/1.1/DTD/svg11.dtd">
<!-- Generated by graphviz version 12.2.0 (20241103.1931)
 -->
<!-- Title: LD2410Async::setInactivityHandling Pages: 1 -->
<svg width="329pt" height="88pt"
 viewBox="0.00 0.00 328.75 87.50" xmlns="http://www.w3.org/2000/svg" xmlns:xlink="http://www.w3.org/1999/xlink">
<g id="graph0" class="graph" transform="scale(1 1) rotate(0) translate(4 83.5)">
<title>LD2410Async::setInactivityHandling</title>
<!-- Node1 -->
<g id="Node000001" class="node">
<title>Node1</title>
<g id="a_Node000001"><a xlink:title="Enables or disables automatic inactivity handling of the sensor.">
<polygon fill="#999999" stroke="#666666" points="320.75,-54.5 187,-54.5 187,-24 320.75,-24 320.75,-54.5"/>
<text text-anchor="start" x="195" y="-41" font-family="Helvetica,sans-Serif" font-size="10.00">LD2410Async::setInactivity</text>
<text text-anchor="middle" x="253.88" y="-29.75" font-family="Helvetica,sans-Serif" font-size="10.00">Handling</text>
</a>
</g>
</g>
<!-- Node2 -->
<g id="Node000002" class="node">
<title>Node2</title>
<g id="a_Node000002"><a xlink:href="group__LD2410Async__Inactivity.html#ga66ca514c34bec7957b46395dabb602f2" target="_top" xlink:title="Convenience method: disables inactivity handling.">
<polygon fill="white" stroke="#666666" points="151,-79.5 0,-79.5 0,-49 151,-49 151,-79.5"/>
<text text-anchor="start" x="8" y="-66" font-family="Helvetica,sans-Serif" font-size="10.00">LD2410Async::disableInactivity</text>
<text text-anchor="middle" x="75.5" y="-54.75" font-family="Helvetica,sans-Serif" font-size="10.00">Handling</text>
</a>
</g>
</g>
<!-- Node1&#45;&gt;Node2 -->
<g id="edge1_Node000001_Node000002" class="edge">
<title>Node1&#45;&gt;Node2</title>
<g id="a_edge1_Node000001_Node000002"><a xlink:title=" ">
<path fill="none" stroke="#63b8ff" d="M175.48,-50.22C167.46,-51.36 159.33,-52.51 151.34,-53.64"/>
<polygon fill="#63b8ff" stroke="#63b8ff" points="175.79,-53.71 185.2,-48.84 174.81,-46.78 175.79,-53.71"/>
</a>
</g>
</g>
<!-- Node3 -->
<g id="Node000003" class="node">
<title>Node3</title>
<g id="a_Node000003"><a xlink:href="group__LD2410Async__Inactivity.html#ga3e538b0e12f6aa3f28fc025e54aa2dc3" target="_top" xlink:title="Convenience method: enables inactivity handling.">
<polygon fill="white" stroke="#666666" points="149.88,-30.5 1.12,-30.5 1.12,0 149.88,0 149.88,-30.5"/>
<text text-anchor="start" x="9.12" y="-17" font-family="Helvetica,sans-Serif" font-size="10.00">LD2410Async::enableInactivity</text>
<text text-anchor="middle" x="75.5" y="-5.75" font-family="Helvetica,sans-Serif" font-size="10.00">Handling</text>
</a>
</g>
</g>
<!-- Node1&#45;&gt;Node3 -->
<g id="edge2_Node000001_Node000003" class="edge">
<title>Node1&#45;&gt;Node3</title>
<g id="a_edge2_Node000001_Node000003"><a xlink:title=" ">
<path fill="none" stroke="#63b8ff" d="M175.38,-28.7C167,-27.56 158.49,-26.41 150.15,-25.27"/>
<polygon fill="#63b8ff" stroke="#63b8ff" points="174.82,-32.16 185.2,-30.04 175.76,-25.22 174.82,-32.16"/>
</a>
</g>
</g>
</g>
</svg>
