<?xml version="1.0" encoding="UTF-8" standalone="no"?>
<!DOCTYPE svg PUBLIC "-//W3C//DTD SVG 1.1//EN"
 "http://www.w3.org/Graphics/SVG/1.1/DTD/svg11.dtd">
<!-- Generated by graphviz version 12.2.0 (20241103.1931)
 -->
<!-- Title: LD2410Defs.h Pages: 1 -->
<svg width="215pt" height="193pt"
 viewBox="0.00 0.00 215.12 193.00" xmlns="http://www.w3.org/2000/svg" xmlns:xlink="http://www.w3.org/1999/xlink">
<g id="graph0" class="graph" transform="scale(1 1) rotate(0) translate(4 189)">
<title>LD2410Defs.h</title>
<!-- Node1 -->
<g id="Node000001" class="node">
<title>Node1</title>
<g id="a_Node000001"><a xlink:title=" ">
<polygon fill="#999999" stroke="#666666" points="114.12,-185 36.62,-185 36.62,-165.75 114.12,-165.75 114.12,-185"/>
<text text-anchor="middle" x="75.38" y="-171.5" font-family="Helvetica,sans-Serif" font-size="10.00">LD2410Defs.h</text>
</a>
</g>
</g>
<!-- Node2 -->
<g id="Node000002" class="node">
<title>Node2</title>
<g id="a_Node000002"><a xlink:href="LD2410Async_8cpp.html" target="_top" xlink:title=" ">
<polygon fill="white" stroke="#666666" points="94.75,-19.25 0,-19.25 0,0 94.75,0 94.75,-19.25"/>
<text text-anchor="middle" x="47.38" y="-5.75" font-family="Helvetica,sans-Serif" font-size="10.00">LD2410Async.cpp</text>
</a>
</g>
</g>
<!-- Node1&#45;&gt;Node2 -->
<g id="edge1_Node000001_Node000002" class="edge">
<title>Node1&#45;&gt;Node2</title>
<g id="a_edge1_Node000001_Node000002"><a xlink:title=" ">
<path fill="none" stroke="#63b8ff" d="M49.92,-159.02C40.01,-151.55 29.75,-141.6 24.38,-129.75 6.97,-91.39 30.8,-40.26 42.06,-19.73"/>
<polygon fill="#63b8ff" stroke="#63b8ff" points="47.69,-161.73 57.91,-164.54 51.67,-155.97 47.69,-161.73"/>
</a>
</g>
</g>
<!-- Node3 -->
<g id="Node000003" class="node">
<title>Node3</title>
<g id="a_Node000003"><a xlink:href="LD2410Async_8h.html" target="_top" xlink:title=" ">
<polygon fill="white" stroke="#666666" points="117.5,-129.75 33.25,-129.75 33.25,-110.5 117.5,-110.5 117.5,-129.75"/>
<text text-anchor="middle" x="75.38" y="-116.25" font-family="Helvetica,sans-Serif" font-size="10.00">LD2410Async.h</text>
</a>
</g>
</g>
<!-- Node1&#45;&gt;Node3 -->
<g id="edge2_Node000001_Node000003" class="edge">
<title>Node1&#45;&gt;Node3</title>
<g id="a_edge2_Node000001_Node000003"><a xlink:title=" ">
<path fill="none" stroke="#63b8ff" d="M68.82,-154.42C68.33,-146.05 68.78,-136.75 70.17,-130.11"/>
<polygon fill="#63b8ff" stroke="#63b8ff" points="65.31,-154.59 70.02,-164.08 72.26,-153.72 65.31,-154.59"/>
</a>
</g>
</g>
<!-- Node4 -->
<g id="Node000004" class="node">
<title>Node4</title>
<g id="a_Node000004"><a xlink:href="LD2410CommandBuilder_8h.html" target="_top" xlink:title=" ">
<polygon fill="white" stroke="#666666" points="207.12,-74.5 75.62,-74.5 75.62,-55.25 207.12,-55.25 207.12,-74.5"/>
<text text-anchor="middle" x="141.38" y="-61" font-family="Helvetica,sans-Serif" font-size="10.00">LD2410CommandBuilder.h</text>
</a>
</g>
</g>
<!-- Node1&#45;&gt;Node4 -->
<g id="edge7_Node000001_Node000004" class="edge">
<title>Node1&#45;&gt;Node4</title>
<g id="a_edge7_Node000001_Node000004"><a xlink:title=" ">
<path fill="none" stroke="#63b8ff" d="M98.75,-158.96C108.66,-151.29 119.48,-141.21 126.38,-129.75 136.94,-112.18 140.06,-87.74 140.99,-74.77"/>
<polygon fill="#63b8ff" stroke="#63b8ff" points="96.95,-155.94 90.91,-164.65 101.06,-161.61 96.95,-155.94"/>
</a>
</g>
</g>
<!-- Node3&#45;&gt;Node1 -->
<g id="edge6_Node000003_Node000001" class="edge">
<title>Node3&#45;&gt;Node1</title>
<g id="a_edge6_Node000003_Node000001"><a xlink:title=" ">
<path fill="none" stroke="#63b8ff" d="M81.95,-141.32C82.42,-149.71 81.95,-158.99 80.54,-165.58"/>
<polygon fill="#63b8ff" stroke="#63b8ff" points="85.45,-141.12 80.76,-131.61 78.5,-141.96 85.45,-141.12"/>
</a>
</g>
</g>
<!-- Node3&#45;&gt;Node2 -->
<g id="edge3_Node000003_Node000002" class="edge">
<title>Node3&#45;&gt;Node2</title>
<g id="a_edge3_Node000003_Node000002"><a xlink:title=" ">
<path fill="none" stroke="#63b8ff" d="M70.21,-99.1C64.09,-75.4 54.17,-36.97 49.7,-19.63"/>
<polygon fill="#63b8ff" stroke="#63b8ff" points="66.82,-99.97 72.71,-108.78 73.6,-98.22 66.82,-99.97"/>
</a>
</g>
</g>
<!-- Node3&#45;&gt;Node4 -->
<g id="edge4_Node000003_Node000004" class="edge">
<title>Node3&#45;&gt;Node4</title>
<g id="a_edge4_Node000003_Node000004"><a xlink:title=" ">
<path fill="none" stroke="#63b8ff" d="M95.47,-102.91C106.93,-93.67 120.86,-82.43 130.34,-74.77"/>
<polygon fill="#63b8ff" stroke="#63b8ff" points="93.33,-100.14 87.75,-109.14 97.73,-105.59 93.33,-100.14"/>
</a>
</g>
</g>
<!-- Node4&#45;&gt;Node2 -->
<g id="edge5_Node000004_Node000002" class="edge">
<title>Node4&#45;&gt;Node2</title>
<g id="a_edge5_Node000004_Node000002"><a xlink:title=" ">
<path fill="none" stroke="#63b8ff" d="M115.72,-49.34C99.01,-39.88 77.74,-27.83 63.4,-19.7"/>
<polygon fill="#63b8ff" stroke="#63b8ff" points="113.69,-52.21 124.11,-54.1 117.14,-46.12 113.69,-52.21"/>
</a>
</g>
</g>
</g>
</svg>
