<?xml version="1.0" encoding="UTF-8" standalone="no"?>
<!DOCTYPE svg PUBLIC "-//W3C//DTD SVG 1.1//EN"
 "http://www.w3.org/Graphics/SVG/1.1/DTD/svg11.dtd">
<!-- Generated by graphviz version 12.2.0 (20241103.1931)
 -->
<!-- Title: LD2410Async.h Pages: 1 -->
<svg width="164pt" height="193pt"
 viewBox="0.00 0.00 164.01 193.00" xmlns="http://www.w3.org/2000/svg" xmlns:xlink="http://www.w3.org/1999/xlink">
<g id="graph0" class="graph" transform="scale(1 1) rotate(0) translate(4 189)">
<title>LD2410Async.h</title>
<!-- Node1 -->
<g id="Node000001" class="node">
<title>Node1</title>
<g id="a_Node000001"><a xlink:title=" ">
<polygon fill="#999999" stroke="#666666" points="124.95,-185 40.7,-185 40.7,-165.75 124.95,-165.75 124.95,-185"/>
<text text-anchor="middle" x="82.82" y="-171.5" font-family="Helvetica,sans-Serif" font-size="10.00">LD2410Async.h</text>
</a>
</g>
</g>
<!-- Node2 -->
<g id="Node000002" class="node">
<title>Node2</title>
<g id="a_Node000002"><a xlink:href="LD2410Async_8cpp.html" target="_top" xlink:title=" ">
<polygon fill="white" stroke="#666666" points="125.2,-19.25 30.45,-19.25 30.45,0 125.2,0 125.2,-19.25"/>
<text text-anchor="middle" x="77.82" y="-5.75" font-family="Helvetica,sans-Serif" font-size="10.00">LD2410Async.cpp</text>
</a>
</g>
</g>
<!-- Node1&#45;&gt;Node2 -->
<g id="edge1_Node000001_Node000002" class="edge">
<title>Node1&#45;&gt;Node2</title>
<g id="a_edge1_Node000001_Node000002"><a xlink:title=" ">
<path fill="none" stroke="#63b8ff" d="M63.32,-157.7C43.72,-139.55 14.77,-108.52 2.82,-74.5 -0.01,-66.43 -1.41,-62.69 2.82,-55.25 12.71,-37.86 32.34,-26.54 49.04,-19.65"/>
<polygon fill="#63b8ff" stroke="#63b8ff" points="60.91,-160.24 70.69,-164.31 65.58,-155.03 60.91,-160.24"/>
</a>
</g>
</g>
<!-- Node3 -->
<g id="Node000003" class="node">
<title>Node3</title>
<g id="a_Node000003"><a xlink:href="LD2410CommandBuilder_8h.html" target="_top" xlink:title=" ">
<polygon fill="white" stroke="#666666" points="143.57,-74.5 12.07,-74.5 12.07,-55.25 143.57,-55.25 143.57,-74.5"/>
<text text-anchor="middle" x="77.82" y="-61" font-family="Helvetica,sans-Serif" font-size="10.00">LD2410CommandBuilder.h</text>
</a>
</g>
</g>
<!-- Node1&#45;&gt;Node3 -->
<g id="edge2_Node000001_Node000003" class="edge">
<title>Node1&#45;&gt;Node3</title>
<g id="a_edge2_Node000001_Node000003"><a xlink:title=" ">
<path fill="none" stroke="#63b8ff" d="M75.21,-154.62C72.64,-146.97 70.1,-138.07 68.82,-129.75 65.84,-110.27 71.21,-87.38 74.86,-74.98"/>
<polygon fill="#63b8ff" stroke="#63b8ff" points="71.88,-155.71 78.58,-163.92 78.46,-153.32 71.88,-155.71"/>
</a>
</g>
</g>
<!-- Node4 -->
<g id="Node000004" class="node">
<title>Node4</title>
<g id="a_Node000004"><a xlink:href="LD2410Defs_8h.html" target="_top" xlink:title=" ">
<polygon fill="white" stroke="#666666" points="155.57,-129.75 78.07,-129.75 78.07,-110.5 155.57,-110.5 155.57,-129.75"/>
<text text-anchor="middle" x="116.82" y="-116.25" font-family="Helvetica,sans-Serif" font-size="10.00">LD2410Defs.h</text>
</a>
</g>
</g>
<!-- Node1&#45;&gt;Node4 -->
<g id="edge4_Node000001_Node000004" class="edge">
<title>Node1&#45;&gt;Node4</title>
<g id="a_edge4_Node000001_Node000004"><a xlink:title=" ">
<path fill="none" stroke="#63b8ff" d="M88.34,-155.58C93.26,-146.92 99.99,-137.06 105.88,-130.11"/>
<polygon fill="#63b8ff" stroke="#63b8ff" points="85.35,-153.73 83.96,-164.23 91.6,-156.89 85.35,-153.73"/>
</a>
</g>
</g>
<!-- Node3&#45;&gt;Node2 -->
<g id="edge3_Node000003_Node000002" class="edge">
<title>Node3&#45;&gt;Node2</title>
<g id="a_edge3_Node000003_Node000002"><a xlink:title=" ">
<path fill="none" stroke="#63b8ff" d="M77.82,-43.63C77.82,-35.34 77.82,-26.17 77.82,-19.61"/>
<polygon fill="#63b8ff" stroke="#63b8ff" points="74.32,-43.57 77.82,-53.57 81.32,-43.57 74.32,-43.57"/>
</a>
</g>
</g>
<!-- Node4&#45;&gt;Node1 -->
<g id="edge6_Node000004_Node000001" class="edge">
<title>Node4&#45;&gt;Node1</title>
<g id="a_edge6_Node000004_Node000001"><a xlink:title=" ">
<path fill="none" stroke="#63b8ff" d="M111.17,-140.16C106.22,-148.84 99.48,-158.69 93.6,-165.58"/>
<polygon fill="#63b8ff" stroke="#63b8ff" points="114.18,-141.96 115.61,-131.46 107.95,-138.78 114.18,-141.96"/>
</a>
</g>
</g>
<!-- Node4&#45;&gt;Node2 -->
<g id="edge5_Node000004_Node000002" class="edge">
<title>Node4&#45;&gt;Node2</title>
<g id="a_edge5_Node000004_Node000002"><a xlink:title=" ">
<path fill="none" stroke="#63b8ff" d="M136.57,-102.4C149.3,-89.5 161.91,-71.23 152.82,-55.25 142.94,-37.86 123.31,-26.54 106.61,-19.65"/>
<polygon fill="#63b8ff" stroke="#63b8ff" points="134.44,-99.6 129.52,-108.98 139.22,-104.71 134.44,-99.6"/>
</a>
</g>
</g>
<!-- Node4&#45;&gt;Node3 -->
<g id="edge7_Node000004_Node000003" class="edge">
<title>Node4&#45;&gt;Node3</title>
<g id="a_edge7_Node000004_Node000003"><a xlink:title=" ">
<path fill="none" stroke="#63b8ff" d="M103.69,-101.19C97.2,-92.34 89.66,-82.04 84.4,-74.86"/>
<polygon fill="#63b8ff" stroke="#63b8ff" points="100.76,-103.11 109.49,-109.11 106.4,-98.98 100.76,-103.11"/>
</a>
</g>
</g>
</g>
</svg>
