<?xml version="1.0" encoding="UTF-8" standalone="no"?>
<!DOCTYPE svg PUBLIC "-//W3C//DTD SVG 1.1//EN"
 "http://www.w3.org/Graphics/SVG/1.1/DTD/svg11.dtd">
<!-- Generated by graphviz version 12.2.0 (20241103.1931)
 -->
<!-- Title: LD2410Defs.h Pages: 1 -->
<svg width="291pt" height="193pt"
 viewBox="0.00 0.00 290.73 193.00" xmlns="http://www.w3.org/2000/svg" xmlns:xlink="http://www.w3.org/1999/xlink">
<g id="graph0" class="graph" transform="scale(1 1) rotate(0) translate(4 189)">
<title>LD2410Defs.h</title>
<!-- Node1 -->
<g id="Node000001" class="node">
<title>Node1</title>
<g id="a_Node000001"><a xlink:title=" ">
<polygon fill="#999999" stroke="#666666" points="91.73,-185 14.23,-185 14.23,-165.75 91.73,-165.75 91.73,-185"/>
<text text-anchor="middle" x="52.98" y="-171.5" font-family="Helvetica,sans-Serif" font-size="10.00">LD2410Defs.h</text>
</a>
</g>
</g>
<!-- Node2 -->
<g id="Node000002" class="node">
<title>Node2</title>
<g id="a_Node000002"><a xlink:title=" ">
<polygon fill="#e0e0e0" stroke="#999999" points="97.23,-19.25 40.73,-19.25 40.73,0 97.23,0 97.23,-19.25"/>
<text text-anchor="middle" x="68.98" y="-5.75" font-family="Helvetica,sans-Serif" font-size="10.00">Arduino.h</text>
</a>
</g>
</g>
<!-- Node1&#45;&gt;Node2 -->
<g id="edge1_Node000001_Node000002" class="edge">
<title>Node1&#45;&gt;Node2</title>
<g id="a_edge1_Node000001_Node000002"><a xlink:title=" ">
<path fill="none" stroke="#63b8ff" d="M36.75,-165.4C24.67,-157.71 9.08,-145.39 1.98,-129.75 -1.56,-121.96 1.14,-119.01 1.98,-110.5 4.43,-85.58 -0.05,-76.63 12.98,-55.25 20.21,-43.38 31.8,-33.37 42.57,-25.86"/>
<polygon fill="#63b8ff" stroke="#63b8ff" points="44.33,-28.89 50.81,-20.5 40.52,-23.02 44.33,-28.89"/>
</a>
</g>
</g>
<!-- Node3 -->
<g id="Node000003" class="node">
<title>Node3</title>
<g id="a_Node000003"><a xlink:href="LD2410Async_8h.html" target="_top" xlink:title=" ">
<polygon fill="white" stroke="#666666" points="95.1,-129.75 10.85,-129.75 10.85,-110.5 95.1,-110.5 95.1,-129.75"/>
<text text-anchor="middle" x="52.98" y="-116.25" font-family="Helvetica,sans-Serif" font-size="10.00">LD2410Async.h</text>
</a>
</g>
</g>
<!-- Node1&#45;&gt;Node3 -->
<g id="edge2_Node000001_Node000003" class="edge">
<title>Node1&#45;&gt;Node3</title>
<g id="a_edge2_Node000001_Node000003"><a xlink:title=" ">
<path fill="none" stroke="#63b8ff" d="M47.81,-165.58C46.4,-158.99 45.93,-149.71 46.41,-141.32"/>
<polygon fill="#63b8ff" stroke="#63b8ff" points="49.85,-141.96 47.59,-131.61 42.9,-141.12 49.85,-141.96"/>
</a>
</g>
</g>
<!-- Node3&#45;&gt;Node1 -->
<g id="edge9_Node000003_Node000001" class="edge">
<title>Node3&#45;&gt;Node1</title>
<g id="a_edge9_Node000003_Node000001"><a xlink:title=" ">
<path fill="none" stroke="#63b8ff" d="M58.18,-130.11C59.58,-136.75 60.03,-146.05 59.54,-154.42"/>
<polygon fill="#63b8ff" stroke="#63b8ff" points="56.1,-153.72 58.33,-164.08 63.04,-154.59 56.1,-153.72"/>
</a>
</g>
</g>
<!-- Node3&#45;&gt;Node2 -->
<g id="edge3_Node000003_Node000002" class="edge">
<title>Node3&#45;&gt;Node2</title>
<g id="a_edge3_Node000003_Node000002"><a xlink:title=" ">
<path fill="none" stroke="#63b8ff" d="M42.44,-110.22C29.4,-98.05 9.94,-75.43 18.98,-55.25 24.18,-43.62 34.09,-33.78 43.71,-26.32"/>
<polygon fill="#63b8ff" stroke="#63b8ff" points="45.7,-29.2 51.83,-20.55 41.65,-23.49 45.7,-29.2"/>
</a>
</g>
</g>
<!-- Node4 -->
<g id="Node000004" class="node">
<title>Node4</title>
<g id="a_Node000004"><a xlink:title=" ">
<polygon fill="#e0e0e0" stroke="#999999" points="78.23,-74.5 27.73,-74.5 27.73,-55.25 78.23,-55.25 78.23,-74.5"/>
<text text-anchor="middle" x="52.98" y="-61" font-family="Helvetica,sans-Serif" font-size="10.00">Ticker.h</text>
</a>
</g>
</g>
<!-- Node3&#45;&gt;Node4 -->
<g id="edge4_Node000003_Node000004" class="edge">
<title>Node3&#45;&gt;Node4</title>
<g id="a_edge4_Node000003_Node000004"><a xlink:title=" ">
<path fill="none" stroke="#63b8ff" d="M52.98,-110.33C52.98,-103.82 52.98,-94.67 52.98,-86.37"/>
<polygon fill="#63b8ff" stroke="#63b8ff" points="56.48,-86.37 52.98,-76.37 49.48,-86.37 56.48,-86.37"/>
</a>
</g>
</g>
<!-- Node5 -->
<g id="Node000005" class="node">
<title>Node5</title>
<g id="a_Node000005"><a xlink:href="LD2410Debug_8h.html" target="_top" xlink:title=" ">
<polygon fill="white" stroke="#666666" points="181.48,-74.5 96.48,-74.5 96.48,-55.25 181.48,-55.25 181.48,-74.5"/>
<text text-anchor="middle" x="138.98" y="-61" font-family="Helvetica,sans-Serif" font-size="10.00">LD2410Debug.h</text>
</a>
</g>
</g>
<!-- Node3&#45;&gt;Node5 -->
<g id="edge5_Node000003_Node000005" class="edge">
<title>Node3&#45;&gt;Node5</title>
<g id="a_edge5_Node000003_Node000005"><a xlink:title=" ">
<path fill="none" stroke="#63b8ff" d="M67.57,-110.09C80.42,-102.14 99.39,-90.39 114.55,-81"/>
<polygon fill="#63b8ff" stroke="#63b8ff" points="116.37,-83.99 123.03,-75.75 112.69,-78.04 116.37,-83.99"/>
</a>
</g>
</g>
<!-- Node6 -->
<g id="Node000006" class="node">
<title>Node6</title>
<g id="a_Node000006"><a xlink:href="LD2410Types_8h.html" target="_top" xlink:title=" ">
<polygon fill="white" stroke="#666666" points="282.73,-74.5 199.23,-74.5 199.23,-55.25 282.73,-55.25 282.73,-74.5"/>
<text text-anchor="middle" x="240.98" y="-61" font-family="Helvetica,sans-Serif" font-size="10.00">LD2410Types.h</text>
</a>
</g>
</g>
<!-- Node3&#45;&gt;Node6 -->
<g id="edge7_Node000003_Node000006" class="edge">
<title>Node3&#45;&gt;Node6</title>
<g id="a_edge7_Node000003_Node000006"><a xlink:title=" ">
<path fill="none" stroke="#63b8ff" d="M84.87,-110.09C116.06,-101.26 163.78,-87.74 198.24,-77.98"/>
<polygon fill="#63b8ff" stroke="#63b8ff" points="198.81,-81.46 207.47,-75.36 196.9,-74.72 198.81,-81.46"/>
</a>
</g>
</g>
<!-- Node5&#45;&gt;Node2 -->
<g id="edge6_Node000005_Node000002" class="edge">
<title>Node5&#45;&gt;Node2</title>
<g id="a_edge6_Node000005_Node000002"><a xlink:title=" ">
<path fill="none" stroke="#63b8ff" d="M127.1,-54.84C116.88,-47.07 101.91,-35.67 89.71,-26.4"/>
<polygon fill="#63b8ff" stroke="#63b8ff" points="91.96,-23.71 81.88,-20.44 87.72,-29.28 91.96,-23.71"/>
</a>
</g>
</g>
<!-- Node6&#45;&gt;Node2 -->
<g id="edge8_Node000006_Node000002" class="edge">
<title>Node6&#45;&gt;Node2</title>
<g id="a_edge8_Node000006_Node000002"><a xlink:title=" ">
<path fill="none" stroke="#63b8ff" d="M211.8,-54.84C183.34,-46.03 139.84,-32.56 108.33,-22.81"/>
<polygon fill="#63b8ff" stroke="#63b8ff" points="109.76,-19.59 99.17,-19.97 107.69,-26.27 109.76,-19.59"/>
</a>
</g>
</g>
</g>
</svg>
