<?xml version="1.0" encoding="UTF-8" standalone="no"?>
<!DOCTYPE svg PUBLIC "-//W3C//DTD SVG 1.1//EN"
 "http://www.w3.org/Graphics/SVG/1.1/DTD/svg11.dtd">
<!-- Generated by graphviz version 12.2.0 (20241103.1931)
 -->
<!-- Title: LD2410Async.cpp Pages: 1 -->
<svg width="470pt" height="248pt"
 viewBox="0.00 0.00 470.42 248.25" xmlns="http://www.w3.org/2000/svg" xmlns:xlink="http://www.w3.org/1999/xlink">
<g id="graph0" class="graph" transform="scale(1 1) rotate(0) translate(4 244.25)">
<title>LD2410Async.cpp</title>
<!-- Node1 -->
<g id="Node000001" class="node">
<title>Node1</title>
<g id="a_Node000001"><a xlink:title=" ">
<polygon fill="#999999" stroke="#666666" points="327.62,-240.25 232.88,-240.25 232.88,-221 327.62,-221 327.62,-240.25"/>
<text text-anchor="middle" x="280.25" y="-226.75" font-family="Helvetica,sans-Serif" font-size="10.00">LD2410Async.cpp</text>
</a>
</g>
</g>
<!-- Node2 -->
<g id="Node000002" class="node">
<title>Node2</title>
<g id="a_Node000002"><a xlink:title=" ">
<polygon fill="#e0e0e0" stroke="#999999" points="344.5,-19.25 288,-19.25 288,0 344.5,0 344.5,-19.25"/>
<text text-anchor="middle" x="316.25" y="-5.75" font-family="Helvetica,sans-Serif" font-size="10.00">Arduino.h</text>
</a>
</g>
</g>
<!-- Node1&#45;&gt;Node2 -->
<g id="edge1_Node000001_Node000002" class="edge">
<title>Node1&#45;&gt;Node2</title>
<g id="a_edge1_Node000001_Node000002"><a xlink:title=" ">
<path fill="none" stroke="#63b8ff" d="M327.8,-228.16C359.57,-224.4 399.25,-213.73 420.25,-185 437.67,-161.16 508.3,-192.36 415.25,-55.25 401.79,-35.42 377.28,-24.28 356.01,-18.09"/>
<polygon fill="#63b8ff" stroke="#63b8ff" points="356.97,-14.72 346.41,-15.59 355.21,-21.49 356.97,-14.72"/>
</a>
</g>
</g>
<!-- Node3 -->
<g id="Node000003" class="node">
<title>Node3</title>
<g id="a_Node000003"><a xlink:title=" ">
<polygon fill="#e0e0e0" stroke="#999999" points="50.5,-74.5 0,-74.5 0,-55.25 50.5,-55.25 50.5,-74.5"/>
<text text-anchor="middle" x="25.25" y="-61" font-family="Helvetica,sans-Serif" font-size="10.00">Ticker.h</text>
</a>
</g>
</g>
<!-- Node1&#45;&gt;Node3 -->
<g id="edge2_Node000001_Node000003" class="edge">
<title>Node1&#45;&gt;Node3</title>
<g id="a_edge2_Node000001_Node000003"><a xlink:title=" ">
<path fill="none" stroke="#63b8ff" d="M266.18,-220.59C224.38,-193.75 100.66,-114.3 48.68,-80.92"/>
<polygon fill="#63b8ff" stroke="#63b8ff" points="50.86,-78.16 40.55,-75.7 47.08,-84.05 50.86,-78.16"/>
</a>
</g>
</g>
<!-- Node4 -->
<g id="Node000004" class="node">
<title>Node4</title>
<g id="a_Node000004"><a xlink:href="LD2410Async_8h.html" target="_top" xlink:title=" ">
<polygon fill="white" stroke="#666666" points="308.38,-129.75 224.12,-129.75 224.12,-110.5 308.38,-110.5 308.38,-129.75"/>
<text text-anchor="middle" x="266.25" y="-116.25" font-family="Helvetica,sans-Serif" font-size="10.00">LD2410Async.h</text>
</a>
</g>
</g>
<!-- Node1&#45;&gt;Node4 -->
<g id="edge3_Node000001_Node000004" class="edge">
<title>Node1&#45;&gt;Node4</title>
<g id="a_edge3_Node000001_Node000004"><a xlink:title=" ">
<path fill="none" stroke="#63b8ff" d="M272.58,-220.79C265.73,-212.28 256.2,-198.71 252.25,-185 247.97,-170.13 252.22,-152.99 257.12,-140.21"/>
<polygon fill="#63b8ff" stroke="#63b8ff" points="260.23,-141.85 260.99,-131.28 253.8,-139.07 260.23,-141.85"/>
</a>
</g>
</g>
<!-- Node6 -->
<g id="Node000006" class="node">
<title>Node6</title>
<g id="a_Node000006"><a xlink:href="LD2410Types_8h.html" target="_top" xlink:title=" ">
<polygon fill="white" stroke="#666666" points="152,-74.5 68.5,-74.5 68.5,-55.25 152,-55.25 152,-74.5"/>
<text text-anchor="middle" x="110.25" y="-61" font-family="Helvetica,sans-Serif" font-size="10.00">LD2410Types.h</text>
</a>
</g>
</g>
<!-- Node1&#45;&gt;Node6 -->
<g id="edge14_Node000001_Node000006" class="edge">
<title>Node1&#45;&gt;Node6</title>
<g id="a_edge14_Node000001_Node000006"><a xlink:title=" ">
<path fill="none" stroke="#63b8ff" d="M271.11,-220.82C243.9,-194.61 163.1,-116.78 127.46,-82.45"/>
<polygon fill="#63b8ff" stroke="#63b8ff" points="130.16,-80.19 120.53,-75.77 125.3,-85.23 130.16,-80.19"/>
</a>
</g>
</g>
<!-- Node7 -->
<g id="Node000007" class="node">
<title>Node7</title>
<g id="a_Node000007"><a xlink:href="LD2410Defs_8h.html" target="_top" xlink:title=" ">
<polygon fill="white" stroke="#666666" points="389,-74.5 311.5,-74.5 311.5,-55.25 389,-55.25 389,-74.5"/>
<text text-anchor="middle" x="350.25" y="-61" font-family="Helvetica,sans-Serif" font-size="10.00">LD2410Defs.h</text>
</a>
</g>
</g>
<!-- Node1&#45;&gt;Node7 -->
<g id="edge13_Node000001_Node000007" class="edge">
<title>Node1&#45;&gt;Node7</title>
<g id="a_edge13_Node000001_Node000007"><a xlink:title=" ">
<path fill="none" stroke="#63b8ff" d="M327.92,-225.24C354.49,-220.08 385.52,-208.94 402.25,-185 425.39,-151.89 390.74,-106.84 367.81,-82.73"/>
<polygon fill="#63b8ff" stroke="#63b8ff" points="370.6,-80.58 361.08,-75.94 365.63,-85.51 370.6,-80.58"/>
</a>
</g>
</g>
<!-- Node8 -->
<g id="Node000008" class="node">
<title>Node8</title>
<g id="a_Node000008"><a xlink:href="LD2410CommandBuilder_8h.html" target="_top" xlink:title=" ">
<polygon fill="white" stroke="#666666" points="393,-185 261.5,-185 261.5,-165.75 393,-165.75 393,-185"/>
<text text-anchor="middle" x="327.25" y="-171.5" font-family="Helvetica,sans-Serif" font-size="10.00">LD2410CommandBuilder.h</text>
</a>
</g>
</g>
<!-- Node1&#45;&gt;Node8 -->
<g id="edge15_Node000001_Node000008" class="edge">
<title>Node1&#45;&gt;Node8</title>
<g id="a_edge15_Node000001_Node000008"><a xlink:title=" ">
<path fill="none" stroke="#63b8ff" d="M288.01,-220.83C294.44,-213.55 303.76,-202.98 311.71,-193.98"/>
<polygon fill="#63b8ff" stroke="#63b8ff" points="314.33,-196.31 318.32,-186.49 309.08,-191.68 314.33,-196.31"/>
</a>
</g>
</g>
<!-- Node4&#45;&gt;Node2 -->
<g id="edge4_Node000004_Node000002" class="edge">
<title>Node4&#45;&gt;Node2</title>
<g id="a_edge4_Node000004_Node000002"><a xlink:title=" ">
<path fill="none" stroke="#63b8ff" d="M270.34,-110.25C278.4,-92.76 296.48,-53.52 307.4,-29.84"/>
<polygon fill="#63b8ff" stroke="#63b8ff" points="310.46,-31.55 311.47,-21 304.1,-28.62 310.46,-31.55"/>
</a>
</g>
</g>
<!-- Node4&#45;&gt;Node3 -->
<g id="edge5_Node000004_Node000003" class="edge">
<title>Node4&#45;&gt;Node3</title>
<g id="a_edge5_Node000004_Node000003"><a xlink:title=" ">
<path fill="none" stroke="#63b8ff" d="M223.73,-110.43C184.19,-102.23 123.36,-89.37 61.92,-75.06"/>
<polygon fill="#63b8ff" stroke="#63b8ff" points="62.85,-71.69 52.32,-72.82 61.26,-78.51 62.85,-71.69"/>
</a>
</g>
</g>
<!-- Node5 -->
<g id="Node000005" class="node">
<title>Node5</title>
<g id="a_Node000005"><a xlink:href="LD2410Debug_8h.html" target="_top" xlink:title=" ">
<polygon fill="white" stroke="#666666" points="254.75,-74.5 169.75,-74.5 169.75,-55.25 254.75,-55.25 254.75,-74.5"/>
<text text-anchor="middle" x="212.25" y="-61" font-family="Helvetica,sans-Serif" font-size="10.00">LD2410Debug.h</text>
</a>
</g>
</g>
<!-- Node4&#45;&gt;Node5 -->
<g id="edge6_Node000004_Node000005" class="edge">
<title>Node4&#45;&gt;Node5</title>
<g id="a_edge6_Node000004_Node000005"><a xlink:title=" ">
<path fill="none" stroke="#63b8ff" d="M257.33,-110.33C249.8,-102.9 238.78,-92.04 229.52,-82.91"/>
<polygon fill="#63b8ff" stroke="#63b8ff" points="232.02,-80.45 222.44,-75.92 227.1,-85.44 232.02,-80.45"/>
</a>
</g>
</g>
<!-- Node4&#45;&gt;Node6 -->
<g id="edge8_Node000004_Node000006" class="edge">
<title>Node4&#45;&gt;Node6</title>
<g id="a_edge8_Node000004_Node000006"><a xlink:title=" ">
<path fill="none" stroke="#63b8ff" d="M239.79,-110.09C214.46,-101.45 176.02,-88.32 147.58,-78.62"/>
<polygon fill="#63b8ff" stroke="#63b8ff" points="148.87,-75.36 138.28,-75.44 146.61,-81.98 148.87,-75.36"/>
</a>
</g>
</g>
<!-- Node4&#45;&gt;Node7 -->
<g id="edge10_Node000004_Node000007" class="edge">
<title>Node4&#45;&gt;Node7</title>
<g id="a_edge10_Node000004_Node000007"><a xlink:title=" ">
<path fill="none" stroke="#63b8ff" d="M275.28,-110.09C286.38,-101.98 305.1,-89.93 321.15,-80.46"/>
<polygon fill="#63b8ff" stroke="#63b8ff" points="322.48,-83.73 329.39,-75.71 318.98,-77.67 322.48,-83.73"/>
</a>
</g>
</g>
<!-- Node5&#45;&gt;Node2 -->
<g id="edge7_Node000005_Node000002" class="edge">
<title>Node5&#45;&gt;Node2</title>
<g id="a_edge7_Node000005_Node000002"><a xlink:title=" ">
<path fill="none" stroke="#63b8ff" d="M229.89,-54.84C245.88,-46.66 269.71,-34.46 288.29,-24.94"/>
<polygon fill="#63b8ff" stroke="#63b8ff" points="289.87,-28.07 297.17,-20.39 286.68,-21.83 289.87,-28.07"/>
</a>
</g>
</g>
<!-- Node6&#45;&gt;Node2 -->
<g id="edge9_Node000006_Node000002" class="edge">
<title>Node6&#45;&gt;Node2</title>
<g id="a_edge9_Node000006_Node000002"><a xlink:title=" ">
<path fill="none" stroke="#63b8ff" d="M145.2,-54.84C181.76,-45.39 239.04,-30.58 277.11,-20.74"/>
<polygon fill="#63b8ff" stroke="#63b8ff" points="277.51,-24.25 286.31,-18.36 275.76,-17.48 277.51,-24.25"/>
</a>
</g>
</g>
<!-- Node7&#45;&gt;Node2 -->
<g id="edge11_Node000007_Node000002" class="edge">
<title>Node7&#45;&gt;Node2</title>
<g id="a_edge11_Node000007_Node000002"><a xlink:title=" ">
<path fill="none" stroke="#63b8ff" d="M344.64,-55.08C340.13,-48.03 333.66,-37.9 328.04,-29.08"/>
<polygon fill="#63b8ff" stroke="#63b8ff" points="331.13,-27.43 322.8,-20.88 325.23,-31.2 331.13,-27.43"/>
</a>
</g>
</g>
<!-- Node7&#45;&gt;Node4 -->
<g id="edge12_Node000007_Node000004" class="edge">
<title>Node7&#45;&gt;Node4</title>
<g id="a_edge12_Node000007_Node000004"><a xlink:title=" ">
<path fill="none" stroke="#63b8ff" d="M341.4,-74.77C330.32,-82.89 311.47,-95.03 295.32,-104.56"/>
<polygon fill="#63b8ff" stroke="#63b8ff" points="293.95,-101.31 287.03,-109.34 297.44,-107.38 293.95,-101.31"/>
</a>
</g>
</g>
<!-- Node8&#45;&gt;Node2 -->
<g id="edge16_Node000008_Node000002" class="edge">
<title>Node8&#45;&gt;Node2</title>
<g id="a_edge16_Node000008_Node000002"><a xlink:title=" ">
<path fill="none" stroke="#63b8ff" d="M339.88,-165.41C366.25,-145.57 422.73,-96.44 398.25,-55.25 388.81,-39.36 371.51,-28.78 355.23,-21.92"/>
<polygon fill="#63b8ff" stroke="#63b8ff" points="356.77,-18.76 346.18,-18.47 354.28,-25.3 356.77,-18.76"/>
</a>
</g>
</g>
<!-- Node8&#45;&gt;Node4 -->
<g id="edge17_Node000008_Node000004" class="edge">
<title>Node8&#45;&gt;Node4</title>
<g id="a_edge17_Node000008_Node000004"><a xlink:title=" ">
<path fill="none" stroke="#63b8ff" d="M316.9,-165.34C308.17,-157.72 295.46,-146.62 284.95,-137.45"/>
<polygon fill="#63b8ff" stroke="#63b8ff" points="287.42,-134.96 277.59,-131.02 282.82,-140.23 287.42,-134.96"/>
</a>
</g>
</g>
<!-- Node8&#45;&gt;Node6 -->
<g id="edge19_Node000008_Node000006" class="edge">
<title>Node8&#45;&gt;Node6</title>
<g id="a_edge19_Node000008_Node000006"><a xlink:title=" ">
<path fill="none" stroke="#63b8ff" d="M300.91,-165.3C277.86,-157.02 243.72,-143.96 215.25,-129.75 185.85,-115.08 153.83,-94.95 132.98,-81.23"/>
<polygon fill="#63b8ff" stroke="#63b8ff" points="134.96,-78.35 124.69,-75.72 131.08,-84.18 134.96,-78.35"/>
</a>
</g>
</g>
<!-- Node8&#45;&gt;Node7 -->
<g id="edge18_Node000008_Node000007" class="edge">
<title>Node8&#45;&gt;Node7</title>
<g id="a_edge18_Node000008_Node000007"><a xlink:title=" ">
<path fill="none" stroke="#63b8ff" d="M329.13,-165.5C332.79,-148.25 340.93,-109.83 345.97,-86.06"/>
<polygon fill="#63b8ff" stroke="#63b8ff" points="349.38,-86.87 348.03,-76.36 342.53,-85.41 349.38,-86.87"/>
</a>
</g>
</g>
</g>
</svg>
