<?xml version="1.0" encoding="UTF-8" standalone="no"?>
<!DOCTYPE svg PUBLIC "-//W3C//DTD SVG 1.1//EN"
 "http://www.w3.org/Graphics/SVG/1.1/DTD/svg11.dtd">
<!-- Generated by graphviz version 12.2.0 (20241103.1931)
 -->
<!-- Title: LD2410Async.h Pages: 1 -->
<svg width="375pt" height="138pt"
 viewBox="0.00 0.00 375.37 137.75" xmlns="http://www.w3.org/2000/svg" xmlns:xlink="http://www.w3.org/1999/xlink">
<g id="graph0" class="graph" transform="scale(1 1) rotate(0) translate(4 133.75)">
<title>LD2410Async.h</title>
<!-- Node1 -->
<g id="Node000001" class="node">
<title>Node1</title>
<g id="a_Node000001"><a xlink:title=" ">
<polygon fill="#999999" stroke="#666666" points="220.74,-129.75 136.49,-129.75 136.49,-110.5 220.74,-110.5 220.74,-129.75"/>
<text text-anchor="middle" x="178.62" y="-116.25" font-family="Helvetica,sans-Serif" font-size="10.00">LD2410Async.h</text>
</a>
</g>
</g>
<!-- Node2 -->
<g id="Node000002" class="node">
<title>Node2</title>
<g id="a_Node000002"><a xlink:title=" ">
<polygon fill="#e0e0e0" stroke="#999999" points="206.87,-19.25 150.37,-19.25 150.37,0 206.87,0 206.87,-19.25"/>
<text text-anchor="middle" x="178.62" y="-5.75" font-family="Helvetica,sans-Serif" font-size="10.00">Arduino.h</text>
</a>
</g>
</g>
<!-- Node1&#45;&gt;Node2 -->
<g id="edge1_Node000001_Node000002" class="edge">
<title>Node1&#45;&gt;Node2</title>
<g id="a_edge1_Node000001_Node000002"><a xlink:title=" ">
<path fill="none" stroke="#63b8ff" d="M136.25,-113.99C90.87,-107.51 23.23,-94.71 7.62,-74.5 -28.33,-27.97 77.65,-15.33 138.72,-11.9"/>
<polygon fill="#63b8ff" stroke="#63b8ff" points="138.59,-15.41 148.4,-11.42 138.24,-8.42 138.59,-15.41"/>
</a>
</g>
</g>
<!-- Node3 -->
<g id="Node000003" class="node">
<title>Node3</title>
<g id="a_Node000003"><a xlink:title=" ">
<polygon fill="#e0e0e0" stroke="#999999" points="66.87,-74.5 16.37,-74.5 16.37,-55.25 66.87,-55.25 66.87,-74.5"/>
<text text-anchor="middle" x="41.62" y="-61" font-family="Helvetica,sans-Serif" font-size="10.00">Ticker.h</text>
</a>
</g>
</g>
<!-- Node1&#45;&gt;Node3 -->
<g id="edge2_Node000001_Node000003" class="edge">
<title>Node1&#45;&gt;Node3</title>
<g id="a_edge2_Node000001_Node000003"><a xlink:title=" ">
<path fill="none" stroke="#63b8ff" d="M155.37,-110.09C133.43,-101.56 100.27,-88.67 75.4,-79.01"/>
<polygon fill="#63b8ff" stroke="#63b8ff" points="76.97,-75.86 66.38,-75.5 74.43,-82.39 76.97,-75.86"/>
</a>
</g>
</g>
<!-- Node4 -->
<g id="Node000004" class="node">
<title>Node4</title>
<g id="a_Node000004"><a xlink:href="LD2410Debug_8h.html" target="_top" xlink:title=" ">
<polygon fill="white" stroke="#666666" points="170.12,-74.5 85.12,-74.5 85.12,-55.25 170.12,-55.25 170.12,-74.5"/>
<text text-anchor="middle" x="127.62" y="-61" font-family="Helvetica,sans-Serif" font-size="10.00">LD2410Debug.h</text>
</a>
</g>
</g>
<!-- Node1&#45;&gt;Node4 -->
<g id="edge3_Node000001_Node000004" class="edge">
<title>Node1&#45;&gt;Node4</title>
<g id="a_edge3_Node000001_Node000004"><a xlink:title=" ">
<path fill="none" stroke="#63b8ff" d="M170.19,-110.33C163.08,-102.9 152.67,-92.04 143.93,-82.91"/>
<polygon fill="#63b8ff" stroke="#63b8ff" points="146.71,-80.75 137.27,-75.95 141.66,-85.6 146.71,-80.75"/>
</a>
</g>
</g>
<!-- Node5 -->
<g id="Node000005" class="node">
<title>Node5</title>
<g id="a_Node000005"><a xlink:href="LD2410Types_8h.html" target="_top" xlink:title=" ">
<polygon fill="white" stroke="#666666" points="271.37,-74.5 187.87,-74.5 187.87,-55.25 271.37,-55.25 271.37,-74.5"/>
<text text-anchor="middle" x="229.62" y="-61" font-family="Helvetica,sans-Serif" font-size="10.00">LD2410Types.h</text>
</a>
</g>
</g>
<!-- Node1&#45;&gt;Node5 -->
<g id="edge5_Node000001_Node000005" class="edge">
<title>Node1&#45;&gt;Node5</title>
<g id="a_edge5_Node000001_Node000005"><a xlink:title=" ">
<path fill="none" stroke="#63b8ff" d="M187.04,-110.33C194.15,-102.9 204.56,-92.04 213.3,-82.91"/>
<polygon fill="#63b8ff" stroke="#63b8ff" points="215.57,-85.6 219.96,-75.95 210.52,-80.75 215.57,-85.6"/>
</a>
</g>
</g>
<!-- Node6 -->
<g id="Node000006" class="node">
<title>Node6</title>
<g id="a_Node000006"><a xlink:href="LD2410Defs_8h.html" target="_top" xlink:title=" ">
<polygon fill="white" stroke="#666666" points="367.37,-74.5 289.87,-74.5 289.87,-55.25 367.37,-55.25 367.37,-74.5"/>
<text text-anchor="middle" x="328.62" y="-61" font-family="Helvetica,sans-Serif" font-size="10.00">LD2410Defs.h</text>
</a>
</g>
</g>
<!-- Node1&#45;&gt;Node6 -->
<g id="edge7_Node000001_Node000006" class="edge">
<title>Node1&#45;&gt;Node6</title>
<g id="a_edge7_Node000001_Node000006"><a xlink:title=" ">
<path fill="none" stroke="#63b8ff" d="M198.84,-110.09C221.49,-101.41 258.47,-88.21 287.24,-78.49"/>
<polygon fill="#63b8ff" stroke="#63b8ff" points="288.01,-81.92 296.38,-75.43 285.79,-75.28 288.01,-81.92"/>
</a>
</g>
</g>
<!-- Node4&#45;&gt;Node2 -->
<g id="edge4_Node000004_Node000002" class="edge">
<title>Node4&#45;&gt;Node2</title>
<g id="a_edge4_Node000004_Node000002"><a xlink:title=" ">
<path fill="none" stroke="#63b8ff" d="M136.04,-55.08C143.15,-47.65 153.56,-36.79 162.3,-27.66"/>
<polygon fill="#63b8ff" stroke="#63b8ff" points="164.57,-30.35 168.96,-20.7 159.52,-25.5 164.57,-30.35"/>
</a>
</g>
</g>
<!-- Node5&#45;&gt;Node2 -->
<g id="edge6_Node000005_Node000002" class="edge">
<title>Node5&#45;&gt;Node2</title>
<g id="a_edge6_Node000005_Node000002"><a xlink:title=" ">
<path fill="none" stroke="#63b8ff" d="M221.19,-55.08C214.08,-47.65 203.67,-36.79 194.93,-27.66"/>
<polygon fill="#63b8ff" stroke="#63b8ff" points="197.71,-25.5 188.27,-20.7 192.66,-30.35 197.71,-25.5"/>
</a>
</g>
</g>
<!-- Node6&#45;&gt;Node1 -->
<g id="edge9_Node000006_Node000001" class="edge">
<title>Node6&#45;&gt;Node1</title>
<g id="a_edge9_Node000006_Node000001"><a xlink:title=" ">
<path fill="none" stroke="#63b8ff" d="M308.27,-74.95C285.57,-83.65 248.59,-96.85 219.84,-106.56"/>
<polygon fill="#63b8ff" stroke="#63b8ff" points="219.09,-103.12 210.71,-109.61 221.31,-109.76 219.09,-103.12"/>
</a>
</g>
</g>
<!-- Node6&#45;&gt;Node2 -->
<g id="edge8_Node000006_Node000002" class="edge">
<title>Node6&#45;&gt;Node2</title>
<g id="a_edge8_Node000006_Node000002"><a xlink:title=" ">
<path fill="none" stroke="#63b8ff" d="M303.17,-54.84C278.93,-46.24 242.18,-33.19 214.88,-23.5"/>
<polygon fill="#63b8ff" stroke="#63b8ff" points="216.21,-20.26 205.61,-20.21 213.86,-26.85 216.21,-20.26"/>
</a>
</g>
</g>
</g>
</svg>
