<?xml version="1.0" encoding="UTF-8" standalone="no"?>
<!DOCTYPE svg PUBLIC "-//W3C//DTD SVG 1.1//EN"
 "http://www.w3.org/Graphics/SVG/1.1/DTD/svg11.dtd">
<!-- Generated by graphviz version 12.2.0 (20241103.1931)
 -->
<!-- Title: LD2410CommandBuilder.h Pages: 1 -->
<svg width="411pt" height="193pt"
 viewBox="0.00 0.00 410.66 193.00" xmlns="http://www.w3.org/2000/svg" xmlns:xlink="http://www.w3.org/1999/xlink">
<g id="graph0" class="graph" transform="scale(1 1) rotate(0) translate(4 189)">
<title>LD2410CommandBuilder.h</title>
<!-- Node1 -->
<g id="Node000001" class="node">
<title>Node1</title>
<g id="a_Node000001"><a xlink:title=" ">
<polygon fill="#999999" stroke="#666666" points="225.66,-185 94.16,-185 94.16,-165.75 225.66,-165.75 225.66,-185"/>
<text text-anchor="middle" x="159.91" y="-171.5" font-family="Helvetica,sans-Serif" font-size="10.00">LD2410CommandBuilder.h</text>
</a>
</g>
</g>
<!-- Node2 -->
<g id="Node000002" class="node">
<title>Node2</title>
<g id="a_Node000002"><a xlink:title=" ">
<polygon fill="#e0e0e0" stroke="#999999" points="153.16,-19.25 96.66,-19.25 96.66,0 153.16,0 153.16,-19.25"/>
<text text-anchor="middle" x="124.91" y="-5.75" font-family="Helvetica,sans-Serif" font-size="10.00">Arduino.h</text>
</a>
</g>
</g>
<!-- Node1&#45;&gt;Node2 -->
<g id="edge1_Node000001_Node000002" class="edge">
<title>Node1&#45;&gt;Node2</title>
<g id="a_edge1_Node000001_Node000002"><a xlink:title=" ">
<path fill="none" stroke="#63b8ff" d="M130.41,-165.31C93.18,-152.09 30.76,-123.59 3.91,-74.5 -15.26,-39.47 42.91,-22.9 85.12,-15.66"/>
<polygon fill="#63b8ff" stroke="#63b8ff" points="85.43,-19.15 94.76,-14.13 84.33,-12.24 85.43,-19.15"/>
</a>
</g>
</g>
<!-- Node3 -->
<g id="Node000003" class="node">
<title>Node3</title>
<g id="a_Node000003"><a xlink:href="LD2410Async_8h.html" target="_top" xlink:title=" ">
<polygon fill="white" stroke="#666666" points="238.03,-129.75 153.78,-129.75 153.78,-110.5 238.03,-110.5 238.03,-129.75"/>
<text text-anchor="middle" x="195.91" y="-116.25" font-family="Helvetica,sans-Serif" font-size="10.00">LD2410Async.h</text>
</a>
</g>
</g>
<!-- Node1&#45;&gt;Node3 -->
<g id="edge2_Node000001_Node000003" class="edge">
<title>Node1&#45;&gt;Node3</title>
<g id="a_edge2_Node000001_Node000003"><a xlink:title=" ">
<path fill="none" stroke="#63b8ff" d="M165.85,-165.58C170.62,-158.53 177.47,-148.4 183.43,-139.58"/>
<polygon fill="#63b8ff" stroke="#63b8ff" points="186.28,-141.61 188.98,-131.36 180.48,-137.69 186.28,-141.61"/>
</a>
</g>
</g>
<!-- Node6 -->
<g id="Node000006" class="node">
<title>Node6</title>
<g id="a_Node000006"><a xlink:href="LD2410Types_8h.html" target="_top" xlink:title=" ">
<polygon fill="white" stroke="#666666" points="96.66,-74.5 13.16,-74.5 13.16,-55.25 96.66,-55.25 96.66,-74.5"/>
<text text-anchor="middle" x="54.91" y="-61" font-family="Helvetica,sans-Serif" font-size="10.00">LD2410Types.h</text>
</a>
</g>
</g>
<!-- Node1&#45;&gt;Node6 -->
<g id="edge13_Node000001_Node000006" class="edge">
<title>Node1&#45;&gt;Node6</title>
<g id="a_edge13_Node000001_Node000006"><a xlink:title=" ">
<path fill="none" stroke="#63b8ff" d="M151.31,-165.5C133.85,-147.46 93.98,-106.25 71.36,-82.88"/>
<polygon fill="#63b8ff" stroke="#63b8ff" points="74.14,-80.72 64.67,-75.96 69.11,-85.58 74.14,-80.72"/>
</a>
</g>
</g>
<!-- Node7 -->
<g id="Node000007" class="node">
<title>Node7</title>
<g id="a_Node000007"><a xlink:href="LD2410Defs_8h.html" target="_top" xlink:title=" ">
<polygon fill="white" stroke="#666666" points="402.66,-74.5 325.16,-74.5 325.16,-55.25 402.66,-55.25 402.66,-74.5"/>
<text text-anchor="middle" x="363.91" y="-61" font-family="Helvetica,sans-Serif" font-size="10.00">LD2410Defs.h</text>
</a>
</g>
</g>
<!-- Node1&#45;&gt;Node7 -->
<g id="edge12_Node000001_Node000007" class="edge">
<title>Node1&#45;&gt;Node7</title>
<g id="a_edge12_Node000001_Node000007"><a xlink:title=" ">
<path fill="none" stroke="#63b8ff" d="M177.97,-165.28C195.62,-156.36 223.2,-142.3 246.91,-129.75 278.3,-113.13 314.11,-93.48 337.75,-80.4"/>
<polygon fill="#63b8ff" stroke="#63b8ff" points="339.32,-83.53 346.38,-75.63 335.93,-77.41 339.32,-83.53"/>
</a>
</g>
</g>
<!-- Node3&#45;&gt;Node2 -->
<g id="edge3_Node000003_Node000002" class="edge">
<title>Node3&#45;&gt;Node2</title>
<g id="a_edge3_Node000003_Node000002"><a xlink:title=" ">
<path fill="none" stroke="#63b8ff" d="M181.87,-110.11C170.4,-102.06 154.54,-89.28 144.91,-74.5 136.25,-61.22 131.14,-43.96 128.25,-30.73"/>
<polygon fill="#63b8ff" stroke="#63b8ff" points="131.72,-30.2 126.41,-21.03 124.84,-31.5 131.72,-30.2"/>
</a>
</g>
</g>
<!-- Node4 -->
<g id="Node000004" class="node">
<title>Node4</title>
<g id="a_Node000004"><a xlink:title=" ">
<polygon fill="#e0e0e0" stroke="#999999" points="307.16,-74.5 256.66,-74.5 256.66,-55.25 307.16,-55.25 307.16,-74.5"/>
<text text-anchor="middle" x="281.91" y="-61" font-family="Helvetica,sans-Serif" font-size="10.00">Ticker.h</text>
</a>
</g>
</g>
<!-- Node3&#45;&gt;Node4 -->
<g id="edge4_Node000003_Node000004" class="edge">
<title>Node3&#45;&gt;Node4</title>
<g id="a_edge4_Node000003_Node000004"><a xlink:title=" ">
<path fill="none" stroke="#63b8ff" d="M210.49,-110.09C223.34,-102.14 242.32,-90.39 257.48,-81"/>
<polygon fill="#63b8ff" stroke="#63b8ff" points="259.3,-83.99 265.96,-75.75 255.61,-78.04 259.3,-83.99"/>
</a>
</g>
</g>
<!-- Node5 -->
<g id="Node000005" class="node">
<title>Node5</title>
<g id="a_Node000005"><a xlink:href="LD2410Debug_8h.html" target="_top" xlink:title=" ">
<polygon fill="white" stroke="#666666" points="238.41,-74.5 153.41,-74.5 153.41,-55.25 238.41,-55.25 238.41,-74.5"/>
<text text-anchor="middle" x="195.91" y="-61" font-family="Helvetica,sans-Serif" font-size="10.00">LD2410Debug.h</text>
</a>
</g>
</g>
<!-- Node3&#45;&gt;Node5 -->
<g id="edge5_Node000003_Node000005" class="edge">
<title>Node3&#45;&gt;Node5</title>
<g id="a_edge5_Node000003_Node000005"><a xlink:title=" ">
<path fill="none" stroke="#63b8ff" d="M195.91,-110.33C195.91,-103.82 195.91,-94.67 195.91,-86.37"/>
<polygon fill="#63b8ff" stroke="#63b8ff" points="199.41,-86.37 195.91,-76.37 192.41,-86.37 199.41,-86.37"/>
</a>
</g>
</g>
<!-- Node3&#45;&gt;Node6 -->
<g id="edge7_Node000003_Node000006" class="edge">
<title>Node3&#45;&gt;Node6</title>
<g id="a_edge7_Node000003_Node000006"><a xlink:title=" ">
<path fill="none" stroke="#63b8ff" d="M171.99,-110.09C149.4,-101.56 115.27,-88.67 89.68,-79.01"/>
<polygon fill="#63b8ff" stroke="#63b8ff" points="90.95,-75.75 80.36,-75.49 88.48,-82.29 90.95,-75.75"/>
</a>
</g>
</g>
<!-- Node3&#45;&gt;Node7 -->
<g id="edge9_Node000003_Node000007" class="edge">
<title>Node3&#45;&gt;Node7</title>
<g id="a_edge9_Node000003_Node000007"><a xlink:title=" ">
<path fill="none" stroke="#63b8ff" d="M219.19,-110.09C245,-101.33 286.94,-87.98 319.11,-78.23"/>
<polygon fill="#63b8ff" stroke="#63b8ff" points="320.02,-81.62 328.59,-75.39 318.01,-74.91 320.02,-81.62"/>
</a>
</g>
</g>
<!-- Node5&#45;&gt;Node2 -->
<g id="edge6_Node000005_Node000002" class="edge">
<title>Node5&#45;&gt;Node2</title>
<g id="a_edge6_Node000005_Node000002"><a xlink:title=" ">
<path fill="none" stroke="#63b8ff" d="M183.86,-54.84C173.5,-47.07 158.3,-35.67 145.94,-26.4"/>
<polygon fill="#63b8ff" stroke="#63b8ff" points="148.08,-23.63 137.98,-20.43 143.88,-29.23 148.08,-23.63"/>
</a>
</g>
</g>
<!-- Node6&#45;&gt;Node2 -->
<g id="edge8_Node000006_Node000002" class="edge">
<title>Node6&#45;&gt;Node2</title>
<g id="a_edge8_Node000006_Node000002"><a xlink:title=" ">
<path fill="none" stroke="#63b8ff" d="M66.78,-54.84C77,-47.07 91.98,-35.67 104.17,-26.4"/>
<polygon fill="#63b8ff" stroke="#63b8ff" points="106.16,-29.28 112,-20.44 101.92,-23.71 106.16,-29.28"/>
</a>
</g>
</g>
<!-- Node7&#45;&gt;Node2 -->
<g id="edge10_Node000007_Node000002" class="edge">
<title>Node7&#45;&gt;Node2</title>
<g id="a_edge10_Node000007_Node000002"><a xlink:title=" ">
<path fill="none" stroke="#63b8ff" d="M324.71,-55.14C280.58,-45.31 209.26,-29.42 164.83,-19.52"/>
<polygon fill="#63b8ff" stroke="#63b8ff" points="165.61,-16.11 155.08,-17.35 164.08,-22.94 165.61,-16.11"/>
</a>
</g>
</g>
<!-- Node7&#45;&gt;Node3 -->
<g id="edge11_Node000007_Node000003" class="edge">
<title>Node7&#45;&gt;Node3</title>
<g id="a_edge11_Node000007_Node000003"><a xlink:title=" ">
<path fill="none" stroke="#63b8ff" d="M340.49,-74.95C314.63,-83.73 272.67,-97.09 240.54,-106.82"/>
<polygon fill="#63b8ff" stroke="#63b8ff" points="239.64,-103.43 231.07,-109.66 241.66,-110.13 239.64,-103.43"/>
</a>
</g>
</g>
</g>
</svg>
