<?xml version="1.0" encoding="UTF-8" standalone="no"?>
<!DOCTYPE svg PUBLIC "-//W3C//DTD SVG 1.1//EN"
 "http://www.w3.org/Graphics/SVG/1.1/DTD/svg11.dtd">
<!-- Generated by graphviz version 12.2.0 (20241103.1931)
 -->
<!-- Title: LD2410Types.h Pages: 1 -->
<svg width="235pt" height="248pt"
 viewBox="0.00 0.00 235.12 248.25" xmlns="http://www.w3.org/2000/svg" xmlns:xlink="http://www.w3.org/1999/xlink">
<g id="graph0" class="graph" transform="scale(1 1) rotate(0) translate(4 244.25)">
<title>LD2410Types.h</title>
<!-- Node1 -->
<g id="Node000001" class="node">
<title>Node1</title>
<g id="a_Node000001"><a xlink:title=" ">
<polygon fill="#999999" stroke="#666666" points="137.12,-240.25 53.62,-240.25 53.62,-221 137.12,-221 137.12,-240.25"/>
<text text-anchor="middle" x="95.38" y="-226.75" font-family="Helvetica,sans-Serif" font-size="10.00">LD2410Types.h</text>
</a>
</g>
</g>
<!-- Node2 -->
<g id="Node000002" class="node">
<title>Node2</title>
<g id="a_Node000002"><a xlink:href="LD2410Async_8cpp.html" target="_top" xlink:title=" ">
<polygon fill="white" stroke="#666666" points="94.75,-19.25 0,-19.25 0,0 94.75,0 94.75,-19.25"/>
<text text-anchor="middle" x="47.38" y="-5.75" font-family="Helvetica,sans-Serif" font-size="10.00">LD2410Async.cpp</text>
</a>
</g>
</g>
<!-- Node1&#45;&gt;Node2 -->
<g id="edge1_Node000001_Node000002" class="edge">
<title>Node1&#45;&gt;Node2</title>
<g id="a_edge1_Node000001_Node000002"><a xlink:title=" ">
<path fill="none" stroke="#63b8ff" d="M71.04,-214.22C61.13,-206.66 50.57,-196.65 44.38,-185 17.21,-133.94 26.2,-112.51 34.38,-55.25 36.18,-42.63 40.71,-28.59 43.91,-19.69"/>
<polygon fill="#63b8ff" stroke="#63b8ff" points="68.76,-216.9 78.94,-219.83 72.81,-211.19 68.76,-216.9"/>
</a>
</g>
</g>
<!-- Node3 -->
<g id="Node000003" class="node">
<title>Node3</title>
<g id="a_Node000003"><a xlink:href="LD2410Async_8h.html" target="_top" xlink:title=" ">
<polygon fill="white" stroke="#666666" points="137.5,-185 53.25,-185 53.25,-165.75 137.5,-165.75 137.5,-185"/>
<text text-anchor="middle" x="95.38" y="-171.5" font-family="Helvetica,sans-Serif" font-size="10.00">LD2410Async.h</text>
</a>
</g>
</g>
<!-- Node1&#45;&gt;Node3 -->
<g id="edge2_Node000001_Node000003" class="edge">
<title>Node1&#45;&gt;Node3</title>
<g id="a_edge2_Node000001_Node000003"><a xlink:title=" ">
<path fill="none" stroke="#63b8ff" d="M95.38,-209.38C95.38,-201.09 95.38,-191.92 95.38,-185.36"/>
<polygon fill="#63b8ff" stroke="#63b8ff" points="91.88,-209.32 95.38,-219.32 98.88,-209.32 91.88,-209.32"/>
</a>
</g>
</g>
<!-- Node4 -->
<g id="Node000004" class="node">
<title>Node4</title>
<g id="a_Node000004"><a xlink:href="LD2410CommandBuilder_8h.html" target="_top" xlink:title=" ">
<polygon fill="white" stroke="#666666" points="227.12,-74.5 95.62,-74.5 95.62,-55.25 227.12,-55.25 227.12,-74.5"/>
<text text-anchor="middle" x="161.38" y="-61" font-family="Helvetica,sans-Serif" font-size="10.00">LD2410CommandBuilder.h</text>
</a>
</g>
</g>
<!-- Node1&#45;&gt;Node4 -->
<g id="edge10_Node000001_Node000004" class="edge">
<title>Node1&#45;&gt;Node4</title>
<g id="a_edge10_Node000001_Node000004"><a xlink:title=" ">
<path fill="none" stroke="#63b8ff" d="M118.57,-214.1C128.44,-206.41 139.29,-196.34 146.38,-185 168.69,-149.29 165.13,-95.77 162.63,-74.77"/>
<polygon fill="#63b8ff" stroke="#63b8ff" points="116.77,-211.08 110.78,-219.81 120.91,-216.72 116.77,-211.08"/>
</a>
</g>
</g>
<!-- Node3&#45;&gt;Node2 -->
<g id="edge3_Node000003_Node000002" class="edge">
<title>Node3&#45;&gt;Node2</title>
<g id="a_edge3_Node000003_Node000002"><a xlink:title=" ">
<path fill="none" stroke="#63b8ff" d="M71.48,-158.79C62.11,-151.26 52.42,-141.33 47.38,-129.75 30.77,-91.64 40.24,-39.94 45.08,-19.48"/>
<polygon fill="#63b8ff" stroke="#63b8ff" points="69.21,-161.46 79.33,-164.59 73.37,-155.83 69.21,-161.46"/>
</a>
</g>
</g>
<!-- Node3&#45;&gt;Node4 -->
<g id="edge4_Node000003_Node000004" class="edge">
<title>Node3&#45;&gt;Node4</title>
<g id="a_edge4_Node000003_Node000004"><a xlink:title=" ">
<path fill="none" stroke="#63b8ff" d="M117.42,-158.33C126.63,-150.62 136.7,-140.67 143.38,-129.75 154.18,-112.05 158.69,-87.66 160.42,-74.74"/>
<polygon fill="#63b8ff" stroke="#63b8ff" points="115.53,-155.36 109.86,-164.31 119.87,-160.85 115.53,-155.36"/>
</a>
</g>
</g>
<!-- Node5 -->
<g id="Node000005" class="node">
<title>Node5</title>
<g id="a_Node000005"><a xlink:href="LD2410Defs_8h.html" target="_top" xlink:title=" ">
<polygon fill="white" stroke="#666666" points="134.12,-129.75 56.62,-129.75 56.62,-110.5 134.12,-110.5 134.12,-129.75"/>
<text text-anchor="middle" x="95.38" y="-116.25" font-family="Helvetica,sans-Serif" font-size="10.00">LD2410Defs.h</text>
</a>
</g>
</g>
<!-- Node3&#45;&gt;Node5 -->
<g id="edge6_Node000003_Node000005" class="edge">
<title>Node3&#45;&gt;Node5</title>
<g id="a_edge6_Node000003_Node000005"><a xlink:title=" ">
<path fill="none" stroke="#63b8ff" d="M88.82,-154.42C88.33,-146.05 88.78,-136.75 90.17,-130.11"/>
<polygon fill="#63b8ff" stroke="#63b8ff" points="85.31,-154.59 90.02,-164.08 92.26,-153.72 85.31,-154.59"/>
</a>
</g>
</g>
<!-- Node4&#45;&gt;Node2 -->
<g id="edge5_Node000004_Node000002" class="edge">
<title>Node4&#45;&gt;Node2</title>
<g id="a_edge5_Node000004_Node000002"><a xlink:title=" ">
<path fill="none" stroke="#63b8ff" d="M131.69,-50.01C111.22,-40.45 84.61,-28.02 66.81,-19.7"/>
<polygon fill="#63b8ff" stroke="#63b8ff" points="130.12,-53.14 140.67,-54.2 133.09,-46.8 130.12,-53.14"/>
</a>
</g>
</g>
<!-- Node5&#45;&gt;Node2 -->
<g id="edge7_Node000005_Node000002" class="edge">
<title>Node5&#45;&gt;Node2</title>
<g id="a_edge7_Node000005_Node000002"><a xlink:title=" ">
<path fill="none" stroke="#63b8ff" d="M86.81,-99.76C76.35,-76.12 59.1,-37.13 51.36,-19.63"/>
<polygon fill="#63b8ff" stroke="#63b8ff" points="83.59,-101.13 90.83,-108.86 89.99,-98.3 83.59,-101.13"/>
</a>
</g>
</g>
<!-- Node5&#45;&gt;Node3 -->
<g id="edge8_Node000005_Node000003" class="edge">
<title>Node5&#45;&gt;Node3</title>
<g id="a_edge8_Node000005_Node000003"><a xlink:title=" ">
<path fill="none" stroke="#63b8ff" d="M101.95,-141.32C102.42,-149.71 101.95,-158.99 100.54,-165.58"/>
<polygon fill="#63b8ff" stroke="#63b8ff" points="105.45,-141.12 100.76,-131.61 98.5,-141.96 105.45,-141.12"/>
</a>
</g>
</g>
<!-- Node5&#45;&gt;Node4 -->
<g id="edge9_Node000005_Node000004" class="edge">
<title>Node5&#45;&gt;Node4</title>
<g id="a_edge9_Node000005_Node000004"><a xlink:title=" ">
<path fill="none" stroke="#63b8ff" d="M115.47,-102.91C126.93,-93.67 140.86,-82.43 150.34,-74.77"/>
<polygon fill="#63b8ff" stroke="#63b8ff" points="113.33,-100.14 107.75,-109.14 117.73,-105.59 113.33,-100.14"/>
</a>
</g>
</g>
</g>
</svg>
