<?xml version="1.0" encoding="UTF-8" standalone="no"?>
<!DOCTYPE svg PUBLIC "-//W3C//DTD SVG 1.1//EN"
 "http://www.w3.org/Graphics/SVG/1.1/DTD/svg11.dtd">
<!-- Generated by graphviz version 12.2.0 (20241103.1931)
 -->
<!-- Title: LD2410CommandBuilder::buildGateSensitivityCommand Pages: 1 -->
<svg width="354pt" height="88pt"
 viewBox="0.00 0.00 353.50 87.50" xmlns="http://www.w3.org/2000/svg" xmlns:xlink="http://www.w3.org/1999/xlink">
<g id="graph0" class="graph" transform="scale(1 1) rotate(0) translate(4 83.5)">
<title>LD2410CommandBuilder::buildGateSensitivityCommand</title>
<!-- Node1 -->
<g id="Node000001" class="node">
<title>Node1</title>
<g id="a_Node000001"><a xlink:title=" ">
<polygon fill="#999999" stroke="#666666" points="345.5,-54.5 194.5,-54.5 194.5,-24 345.5,-24 345.5,-54.5"/>
<text text-anchor="start" x="202.5" y="-41" font-family="Helvetica,sans-Serif" font-size="10.00">LD2410CommandBuilder</text>
<text text-anchor="middle" x="270" y="-29.75" font-family="Helvetica,sans-Serif" font-size="10.00">::buildGateSensitivityCommand</text>
</a>
</g>
</g>
<!-- Node2 -->
<g id="Node000002" class="node">
<title>Node2</title>
<g id="a_Node000002"><a xlink:href="classLD2410Async.html#a9493caef9e22a89445741da019b99213" target="_top" xlink:title="Configures sensitivity thresholds for a single gate.">
<polygon fill="white" stroke="#666666" points="158.5,-79.5 0,-79.5 0,-49 158.5,-49 158.5,-79.5"/>
<text text-anchor="start" x="8" y="-66" font-family="Helvetica,sans-Serif" font-size="10.00">LD2410Async::configureDistance</text>
<text text-anchor="middle" x="79.25" y="-54.75" font-family="Helvetica,sans-Serif" font-size="10.00">GateSensitivityAsync</text>
</a>
</g>
</g>
<!-- Node1&#45;&gt;Node2 -->
<g id="edge1_Node000001_Node000002" class="edge">
<title>Node1&#45;&gt;Node2</title>
<g id="a_edge1_Node000001_Node000002"><a xlink:title=" ">
<path fill="none" stroke="#63b8ff" d="M182.85,-50.66C174.82,-51.72 166.71,-52.8 158.75,-53.85"/>
<polygon fill="#63b8ff" stroke="#63b8ff" points="183.18,-54.15 192.63,-49.37 182.26,-47.21 183.18,-54.15"/>
</a>
</g>
</g>
<!-- Node3 -->
<g id="Node000003" class="node">
<title>Node3</title>
<g id="a_Node000003"><a xlink:href="classLD2410Async.html#a1cf70cb5f55626596530d050b0812b38" target="_top" xlink:title="Configures sensitivity thresholds for all gates at once.">
<polygon fill="white" stroke="#666666" points="158.5,-30.5 0,-30.5 0,0 158.5,0 158.5,-30.5"/>
<text text-anchor="start" x="8" y="-17" font-family="Helvetica,sans-Serif" font-size="10.00">LD2410Async::configureDistance</text>
<text text-anchor="middle" x="79.25" y="-5.75" font-family="Helvetica,sans-Serif" font-size="10.00">GateSensitivityAsync</text>
</a>
</g>
</g>
<!-- Node1&#45;&gt;Node3 -->
<g id="edge2_Node000001_Node000003" class="edge">
<title>Node1&#45;&gt;Node3</title>
<g id="a_edge2_Node000001_Node000003"><a xlink:title=" ">
<path fill="none" stroke="#63b8ff" d="M182.85,-28.3C174.82,-27.27 166.71,-26.24 158.75,-25.23"/>
<polygon fill="#63b8ff" stroke="#63b8ff" points="182.27,-31.75 192.63,-29.54 183.15,-24.81 182.27,-31.75"/>
</a>
</g>
</g>
</g>
</svg>
