<?xml version="1.0" encoding="UTF-8" standalone="no"?>
<!DOCTYPE svg PUBLIC "-//W3C//DTD SVG 1.1//EN"
 "http://www.w3.org/Graphics/SVG/1.1/DTD/svg11.dtd">
<!-- Generated by graphviz version 12.2.0 (20241103.1931)
 -->
<!-- Title: LD2410CommandBuilder::buildBaudRateCommand Pages: 1 -->
<svg width="493pt" height="39pt"
 viewBox="0.00 0.00 493.25 38.50" xmlns="http://www.w3.org/2000/svg" xmlns:xlink="http://www.w3.org/1999/xlink">
<g id="graph0" class="graph" transform="scale(1 1) rotate(0) translate(4 34.5)">
<title>LD2410CommandBuilder::buildBaudRateCommand</title>
<!-- Node1 -->
<g id="Node000001" class="node">
<title>Node1</title>
<g id="a_Node000001"><a xlink:title=" ">
<polygon fill="#999999" stroke="#666666" points="485.25,-30.5 357.5,-30.5 357.5,0 485.25,0 485.25,-30.5"/>
<text text-anchor="start" x="365.5" y="-17" font-family="Helvetica,sans-Serif" font-size="10.00">LD2410CommandBuilder</text>
<text text-anchor="middle" x="421.38" y="-5.75" font-family="Helvetica,sans-Serif" font-size="10.00">::buildBaudRateCommand</text>
</a>
</g>
</g>
<!-- Node2 -->
<g id="Node000002" class="node">
<title>Node2</title>
<g id="a_Node000002"><a xlink:href="classLD2410Async.html#a39aa1e94b76c2a08d96ab80fe2c9ed9c" target="_top" xlink:title="Configures the UART baud rate of the sensor.">
<polygon fill="white" stroke="#666666" points="321.5,-30.5 178.75,-30.5 178.75,0 321.5,0 321.5,-30.5"/>
<text text-anchor="start" x="186.75" y="-17" font-family="Helvetica,sans-Serif" font-size="10.00">LD2410Async::configureBaud</text>
<text text-anchor="middle" x="250.12" y="-5.75" font-family="Helvetica,sans-Serif" font-size="10.00">RateAsync</text>
</a>
</g>
</g>
<!-- Node1&#45;&gt;Node2 -->
<g id="edge1_Node000001_Node000002" class="edge">
<title>Node1&#45;&gt;Node2</title>
<g id="a_edge1_Node000001_Node000002"><a xlink:title=" ">
<path fill="none" stroke="#63b8ff" d="M346.1,-15.25C338.06,-15.25 329.89,-15.25 321.89,-15.25"/>
<polygon fill="#63b8ff" stroke="#63b8ff" points="345.84,-18.75 355.84,-15.25 345.84,-11.75 345.84,-18.75"/>
</a>
</g>
</g>
<!-- Node3 -->
<g id="Node000003" class="node">
<title>Node3</title>
<g id="a_Node000003"><a xlink:href="classLD2410Async.html#adcd209213cc2e418aefd20573a868e0a" target="_top" xlink:title="Configures the baudrate of the serial port of the sensor.">
<polygon fill="white" stroke="#666666" points="142.75,-30.5 0,-30.5 0,0 142.75,0 142.75,-30.5"/>
<text text-anchor="start" x="8" y="-17" font-family="Helvetica,sans-Serif" font-size="10.00">LD2410Async::configureBaud</text>
<text text-anchor="middle" x="71.38" y="-5.75" font-family="Helvetica,sans-Serif" font-size="10.00">RateAsync</text>
</a>
</g>
</g>
<!-- Node2&#45;&gt;Node3 -->
<g id="edge2_Node000002_Node000003" class="edge">
<title>Node2&#45;&gt;Node3</title>
<g id="a_edge2_Node000002_Node000003"><a xlink:title=" ">
<path fill="none" stroke="#63b8ff" d="M166.98,-15.25C158.96,-15.25 150.87,-15.25 142.98,-15.25"/>
<polygon fill="#63b8ff" stroke="#63b8ff" points="166.74,-18.75 176.74,-15.25 166.74,-11.75 166.74,-18.75"/>
</a>
</g>
</g>
</g>
</svg>
