<?xml version="1.0" encoding="UTF-8" standalone="no"?>
<!DOCTYPE svg PUBLIC "-//W3C//DTD SVG 1.1//EN"
 "http://www.w3.org/Graphics/SVG/1.1/DTD/svg11.dtd">
<!-- Generated by graphviz version 12.2.0 (20241103.1931)
 -->
<!-- Title: LD2410CommandBuilder::buildBluetoothPasswordCommand Pages: 1 -->
<svg width="573pt" height="39pt"
 viewBox="0.00 0.00 572.75 38.50" xmlns="http://www.w3.org/2000/svg" xmlns:xlink="http://www.w3.org/1999/xlink">
<g id="graph0" class="graph" transform="scale(1 1) rotate(0) translate(4 34.5)">
<title>LD2410CommandBuilder::buildBluetoothPasswordCommand</title>
<!-- Node1 -->
<g id="Node000001" class="node">
<title>Node1</title>
<g id="a_Node000001"><a xlink:title=" ">
<polygon fill="#999999" stroke="#666666" points="564.75,-30.5 395,-30.5 395,0 564.75,0 564.75,-30.5"/>
<text text-anchor="start" x="403" y="-17" font-family="Helvetica,sans-Serif" font-size="10.00">LD2410CommandBuilder</text>
<text text-anchor="middle" x="479.88" y="-5.75" font-family="Helvetica,sans-Serif" font-size="10.00">::buildBluetoothPasswordCommand</text>
</a>
</g>
</g>
<!-- Node2 -->
<g id="Node000002" class="node">
<title>Node2</title>
<g id="a_Node000002"><a xlink:href="classLD2410Async.html#aaa0138cb624b66482e9a05b197c21f22" target="_top" xlink:title="Sets the password for bluetooth access to the sensor.">
<polygon fill="white" stroke="#666666" points="359,-30.5 197.5,-30.5 197.5,0 359,0 359,-30.5"/>
<text text-anchor="start" x="205.5" y="-17" font-family="Helvetica,sans-Serif" font-size="10.00">LD2410Async::configureBluetooth</text>
<text text-anchor="middle" x="278.25" y="-5.75" font-family="Helvetica,sans-Serif" font-size="10.00">PasswordAsync</text>
</a>
</g>
</g>
<!-- Node1&#45;&gt;Node2 -->
<g id="edge1_Node000001_Node000002" class="edge">
<title>Node1&#45;&gt;Node2</title>
<g id="a_edge1_Node000001_Node000002"><a xlink:title=" ">
<path fill="none" stroke="#63b8ff" d="M383.19,-15.25C375.15,-15.25 367.08,-15.25 359.18,-15.25"/>
<polygon fill="#63b8ff" stroke="#63b8ff" points="382.99,-18.75 392.99,-15.25 382.99,-11.75 382.99,-18.75"/>
</a>
</g>
</g>
<!-- Node3 -->
<g id="Node000003" class="node">
<title>Node3</title>
<g id="a_Node000003"><a xlink:href="classLD2410Async.html#abfe79850fa3e040a12de72ea99747266" target="_top" xlink:title="Sets the password for bluetooth access to the sensor.">
<polygon fill="white" stroke="#666666" points="161.5,-30.5 0,-30.5 0,0 161.5,0 161.5,-30.5"/>
<text text-anchor="start" x="8" y="-17" font-family="Helvetica,sans-Serif" font-size="10.00">LD2410Async::configureBluetooth</text>
<text text-anchor="middle" x="80.75" y="-5.75" font-family="Helvetica,sans-Serif" font-size="10.00">PasswordAsync</text>
</a>
</g>
</g>
<!-- Node2&#45;&gt;Node3 -->
<g id="edge2_Node000002_Node000003" class="edge">
<title>Node2&#45;&gt;Node3</title>
<g id="a_edge2_Node000002_Node000003"><a xlink:title=" ">
<path fill="none" stroke="#63b8ff" d="M185.84,-15.25C177.78,-15.25 169.66,-15.25 161.71,-15.25"/>
<polygon fill="#63b8ff" stroke="#63b8ff" points="185.66,-18.75 195.66,-15.25 185.66,-11.75 185.66,-18.75"/>
</a>
</g>
</g>
</g>
</svg>
